<svg width="331" height="239" viewBox="0 0 331 239" fill="none" xmlns="http://www.w3.org/2000/svg">
<path d="M229.067 29.3048C231.391 29.3048 233.275 27.4266 233.275 25.1098C233.275 22.7929 231.391 20.9147 229.067 20.9147C226.744 20.9147 224.86 22.7929 224.86 25.1098C224.86 27.4266 226.744 29.3048 229.067 29.3048Z" fill="#EC615B"/>
<path d="M233.533 17.6718C234.616 17.6718 235.494 16.7961 235.494 15.7158C235.494 14.6356 234.616 13.7598 233.533 13.7598C232.449 13.7598 231.571 14.6356 231.571 15.7158C231.571 16.7961 232.449 17.6718 233.533 17.6718Z" fill="#EC615B"/>
<path d="M236.656 227.168C238.537 227.168 240.063 225.647 240.063 223.771C240.063 221.895 238.537 220.374 236.656 220.374C234.774 220.374 233.249 221.895 233.249 223.771C233.249 225.647 234.774 227.168 236.656 227.168Z" fill="#EC615B"/>
<path d="M81.6111 238.801C82.4807 238.801 83.1856 238.099 83.1856 237.231C83.1856 236.364 82.4807 235.661 81.6111 235.661C80.7416 235.661 80.0367 236.364 80.0367 237.231C80.0367 238.099 80.7416 238.801 81.6111 238.801Z" fill="#EC615B"/>
<path d="M101.279 122.832C102.177 122.832 102.905 122.106 102.905 121.21C102.905 120.315 102.177 119.589 101.279 119.589C100.381 119.589 99.6528 120.315 99.6528 121.21C99.6528 122.106 100.381 122.832 101.279 122.832Z" fill="#EC615B"/>
<path d="M104.479 131.093C105.349 131.093 106.054 130.391 106.054 129.523C106.054 128.656 105.349 127.954 104.479 127.954C103.61 127.954 102.905 128.656 102.905 129.523C102.905 130.391 103.61 131.093 104.479 131.093Z" fill="#5222D0"/>
<path d="M102.595 174.846C104.22 174.846 105.538 173.532 105.538 171.912C105.538 170.291 104.22 168.978 102.595 168.978C100.97 168.978 99.6528 170.291 99.6528 171.912C99.6528 173.532 100.97 174.846 102.595 174.846Z" fill="#5222D0"/>
<path d="M226.719 8.09777C227.745 8.09777 228.577 7.26814 228.577 6.24473C228.577 5.22133 227.745 4.39169 226.719 4.39169C225.692 4.39169 224.86 5.22133 224.86 6.24473C224.86 7.26814 225.692 8.09777 226.719 8.09777Z" fill="#5222D0"/>
<path d="M156.023 11.3406C156.921 11.3406 157.649 10.6146 157.649 9.71916C157.649 8.82368 156.921 8.09775 156.023 8.09775C155.125 8.09775 154.397 8.82368 154.397 9.71916C154.397 10.6146 155.125 11.3406 156.023 11.3406Z" fill="#5222D0"/>
<path d="M11.0449 138.171C11.7291 138.171 12.2838 137.618 12.2838 136.936C12.2838 136.253 11.7291 135.7 11.0449 135.7C10.3606 135.7 9.80597 136.253 9.80597 136.936C9.80597 137.618 10.3606 138.171 11.0449 138.171Z" fill="#5222D0"/>
<path d="M232.345 235.661C234.056 235.661 235.443 234.279 235.443 232.573C235.443 230.867 234.056 229.485 232.345 229.485C230.635 229.485 229.248 230.867 229.248 232.573C229.248 234.279 230.635 235.661 232.345 235.661Z" fill="#5222D0"/>
<path d="M107.525 42.5078C107.267 40.9121 107.035 37.7207 109.59 37.9781C110.519 38.081 111.035 38.9046 112.068 38.5443C114.004 37.8752 113.565 35.3787 114.365 33.9374C115.681 31.6211 118.236 34.9926 120.198 33.886C120.843 33.5257 120.998 32.8565 120.972 32.1616C120.921 29.5622 123.218 29.7424 125.102 30.2571C125.592 30.3858 125.799 29.6394 125.309 29.5107C123.399 28.996 120.224 28.8158 120.146 31.5697C120.121 32.2388 120.482 32.908 119.501 33.3198C119.191 33.4485 118.675 33.294 118.391 33.2168C117.72 33.0109 117.127 32.5477 116.43 32.3675C115.526 32.1101 114.649 32.2903 114.029 33.0109C113.255 33.9374 113.281 35.1985 112.919 36.2795C112.532 37.4376 111.784 38.1068 110.519 37.5406C110.003 37.3089 109.538 37.1031 108.945 37.1803C106.286 37.5406 106.415 40.7577 106.751 42.7137C106.854 43.2026 107.602 42.9968 107.525 42.5078Z" fill="#5222D0"/>
<path d="M110.571 44.0004C110.777 42.4047 112.068 41.7098 113.565 41.7098C114.365 41.7098 115.165 41.8385 115.939 41.5554C117.694 40.8862 117.359 38.9817 117.772 37.489C118.546 34.658 122.134 36.4081 124.121 35.9448C125.463 35.6102 126.599 34.2719 126.031 32.8564C125.851 32.3931 125.102 32.599 125.283 33.0623C126.16 35.1984 123.166 35.3271 121.902 35.1727C120.972 35.0698 120.069 34.9153 119.14 35.147C117.669 35.533 117.101 36.614 116.894 38.0037C116.714 39.2906 116.739 40.7061 115.062 40.912C114.158 41.0149 113.255 40.7576 112.352 40.9635C110.906 41.298 109.977 42.5077 109.796 43.9489C109.719 44.4894 110.493 44.4894 110.571 44.0004Z" fill="#5222D0"/>
<path d="M1.21103 132.535C0.617382 131.608 0.617382 130.476 1.21103 129.523C1.80467 128.597 2.63061 128.571 3.5856 128.211C4.90195 127.67 4.92776 126.306 4.85033 125.071C4.82452 124.633 4.79871 124.17 4.92776 123.733C5.2633 122.703 6.14086 122.986 6.94099 123.115C7.40558 123.192 7.84436 123.115 8.23152 122.858C8.72192 122.523 9.03165 121.931 9.18651 121.365C9.31557 120.902 9.34138 120.413 9.44462 119.949C9.49624 119.615 9.59948 119.306 9.75435 119.023C10.1673 118.379 10.6577 118.328 11.2514 118.894C11.3804 119.383 12.1289 119.177 11.9999 118.688C11.5353 117.015 9.47043 117.762 8.95422 118.946C8.72192 119.486 8.69611 120.078 8.56706 120.644C8.48963 120.979 8.43801 121.339 8.25733 121.648C7.87017 122.343 7.14747 122.214 6.4764 122.137C5.67627 122.06 5.05681 121.983 4.5406 122.729C3.94696 123.578 4.10182 124.582 4.10182 125.56C4.12763 126.744 3.86952 127.207 2.70804 127.593C2.24345 127.748 1.85629 127.825 1.44332 128.134C-0.0536922 129.189 -0.440852 131.376 0.539953 132.895C0.798059 133.332 1.46913 132.946 1.21103 132.535Z" fill="#EC615B"/>
<path d="M4.43733 134.31C3.35328 134.156 3.76625 132.972 4.25665 132.509C4.618 132.174 5.10841 131.968 5.573 131.737C6.14083 131.454 6.70866 131.119 7.12163 130.63C8.23149 129.24 6.63123 127.387 8.17987 126.281C9.72851 125.2 13.884 124.711 12.6709 121.828C12.4902 121.365 11.8192 121.777 11.9998 122.214C12.8774 124.299 8.61865 124.917 7.5346 125.792C7.14744 126.1 6.81191 126.512 6.65704 127.001C6.34732 128.082 7.25069 129.189 6.45056 130.218C5.52137 131.351 3.53395 131.351 3.06936 132.946C2.78545 133.847 3.27585 134.928 4.25665 135.083C4.72124 135.134 4.92773 134.388 4.43733 134.31Z" fill="#EC615B"/>
<path d="M287.374 74.4984C287.038 73.9065 287.09 73.2631 287.451 72.6969C288.019 71.8733 288.69 72.0535 289.567 72.1307C290.161 72.1821 290.703 72.3108 291.271 71.9762C292.278 71.3586 292.123 70.0717 292.303 69.0938C292.716 66.8032 294.704 68.8879 296.046 68.1672C296.536 67.9099 296.717 67.4209 296.82 66.9061C297.001 65.9024 297.053 62.917 298.988 64.1266C299.401 64.3839 299.814 63.7148 299.376 63.4574C297.646 62.4022 296.252 64.1523 296.098 65.7737C295.994 66.7002 296.098 67.601 294.859 67.4723C294.42 67.4209 293.981 67.1892 293.542 67.1378C292.845 67.0606 292.226 67.2664 291.839 67.8841C291.4 68.6048 291.555 69.5055 291.374 70.2776C290.987 72.0277 289.49 71.0497 288.277 71.2556C286.651 71.5387 285.902 73.4947 286.677 74.8588C286.935 75.322 287.606 74.936 287.374 74.4984Z" fill="#EC615B"/>
<path d="M291.219 76.1198C290.781 74.9359 292.149 73.6234 293.336 74.241C293.491 74.3183 293.697 74.3183 293.8 74.1896C294.394 73.5462 294.549 72.7998 294.807 71.9762C295.272 70.4835 296.381 70.2776 297.724 69.8658C299.04 69.454 300.511 68.3731 299.969 66.8289C299.788 66.3656 299.04 66.5715 299.221 67.0348C299.969 69.068 296.304 69.2224 295.22 69.9688C293.904 70.8953 294.291 72.5682 293.284 73.6491C293.439 73.6234 293.594 73.5976 293.749 73.5976C292.019 72.6968 289.826 74.4727 290.497 76.3514C290.652 76.789 291.4 76.6088 291.219 76.1198Z" fill="#EC615B"/>
<path d="M186.97 82.8628C187.022 82.8628 187.59 84.2526 187.822 84.4327C188.183 84.7158 188.622 84.7416 189.061 84.6644C189.835 84.5357 190.326 83.9695 190.997 83.6092C192.442 82.7856 192.442 84.2011 193.01 84.9989C193.655 85.9512 194.352 85.4879 195.101 85.0247C195.591 84.7158 196.056 84.5099 196.494 84.9474C196.727 85.1791 196.881 85.5651 197.062 85.8482C197.346 86.26 197.656 86.5946 198.12 86.8005C198.559 87.0064 198.972 86.3372 198.508 86.1313C197.449 85.6681 197.32 83.918 196.056 83.7378C195.462 83.6606 195.204 83.9952 194.739 84.2526C194.171 84.5871 193.836 84.8188 193.474 84.1754C193.32 83.918 193.294 83.5577 193.113 83.3003C192.287 81.9363 190.997 82.6826 189.964 83.3518C189.784 83.4805 189.603 83.6091 189.396 83.7121C188.958 83.5834 188.493 83.4547 188.054 83.326C187.874 83.1459 187.874 82.7084 187.719 82.4767C187.461 82.1164 187.202 82.0135 186.79 82.0907C186.273 82.1936 186.48 82.94 186.97 82.8628Z" fill="#EC615B"/>
<path d="M193.036 80.3921C193.81 79.1825 195.591 81.7047 196.314 82.0135C196.752 82.1937 197.165 82.1937 197.63 82.065C197.836 82.0135 198.017 81.9106 198.198 81.8334C198.895 81.5503 199.488 81.7304 200.056 82.2194C200.882 82.9143 201.114 83.8408 202.302 84.0982C202.999 84.2526 203.644 84.0467 203.954 83.3776C204.16 82.94 203.489 82.5283 203.282 82.9915C202.56 84.5357 200.572 81.4988 200.056 81.1642C199.101 80.5465 198.508 81.0613 197.553 81.2672C196.03 81.576 195.539 79.8774 194.275 79.4656C193.526 79.2082 192.803 79.3369 192.39 80.0318C192.081 80.4436 192.752 80.8296 193.036 80.3921Z" fill="#EC615B"/>
<path d="M289.49 125.38C303.195 125.38 316.901 125.38 330.632 125.38C331.123 125.38 331.123 124.608 330.632 124.608C316.927 124.608 303.221 124.608 289.49 124.608C289 124.608 289 125.38 289.49 125.38Z" fill="#E8E8E8"/>
<path d="M300.718 125.2C300.718 129.189 300.718 133.152 300.718 137.141C300.718 137.63 301.492 137.63 301.492 137.141C301.492 133.152 301.492 129.189 301.492 125.2C301.492 124.711 300.718 124.711 300.718 125.2Z" fill="#E8E8E8"/>
<path d="M319.869 124.814C319.869 119.254 319.869 113.695 319.869 108.136C319.869 107.647 319.095 107.647 319.095 108.136C319.095 113.695 319.095 119.254 319.095 124.814C319.095 125.328 319.869 125.328 319.869 124.814Z" fill="#E8E8E8"/>
<path d="M310.758 108.445C315.946 108.445 321.134 108.445 326.322 108.445C326.812 108.445 326.812 107.673 326.322 107.673C321.134 107.673 315.946 107.673 310.758 107.673C310.268 107.673 310.268 108.445 310.758 108.445Z" fill="#E8E8E8"/>
<path d="M300.563 15.7673C300.563 20.58 300.563 25.3928 300.563 30.1798C300.563 30.6688 301.337 30.6688 301.337 30.1798C301.337 25.3671 301.337 20.5543 301.337 15.7673C301.337 15.2783 300.563 15.2783 300.563 15.7673Z" fill="#E8E8E8"/>
<path d="M288.509 31.2865C297.827 31.2865 307.119 31.2865 316.436 31.2865C316.927 31.2865 316.927 30.5144 316.436 30.5144C307.119 30.5144 297.827 30.5144 288.509 30.5144C287.993 30.5144 287.993 31.2865 288.509 31.2865Z" fill="#E8E8E8"/>
<path d="M316.178 31.1835C316.178 34.3749 316.178 37.5662 316.178 40.7576C316.178 41.2466 316.953 41.2466 316.953 40.7576C316.953 37.5662 316.953 34.3749 316.953 31.1835C316.953 30.6945 316.178 30.6945 316.178 31.1835Z" fill="#E8E8E8"/>
<path d="M56.962 0.762823C66.0731 0.762823 75.2101 0.762823 84.3213 0.762823C84.8117 0.762823 84.8117 -0.00927734 84.3213 -0.00927734C75.2101 -0.00927734 66.0731 -0.00927734 56.962 -0.00927734C56.4716 -0.00927734 56.4458 0.762823 56.962 0.762823Z" fill="#E8E8E8"/>
<path d="M83.1856 0.685611C83.1856 3.15633 83.1856 5.62705 83.1856 8.09777C83.1856 8.58677 83.9599 8.58677 83.9599 8.09777C83.9599 5.62705 83.9599 3.15633 83.9599 0.685611C83.9599 0.170877 83.1856 0.170877 83.1856 0.685611Z" fill="#E8E8E8"/>
<path d="M74.9004 0.0679331C74.9004 -3.89551 74.9004 -7.83323 74.9004 -11.7967C74.9004 -12.2857 74.126 -12.2857 74.126 -11.7967C74.126 -7.83323 74.126 -3.89551 74.126 0.0679331C74.126 0.582666 74.9004 0.582666 74.9004 0.0679331Z" fill="#E8E8E8"/>
<path d="M2.83712 80.0833C9.13491 80.0833 15.4327 80.0833 21.7305 80.0833C22.2209 80.0833 22.2209 79.3112 21.7305 79.3112C15.4327 79.3112 9.13491 79.3112 2.83712 79.3112C2.34671 79.3112 2.34671 80.0833 2.83712 80.0833Z" fill="#E8E8E8"/>
<path d="M14.3744 72.3365C14.3744 74.6528 14.3744 76.9691 14.3744 79.2854C14.3744 79.7744 15.1487 79.7744 15.1487 79.2854C15.1487 76.9691 15.1487 74.6528 15.1487 72.3365C15.1487 71.8475 14.3744 71.8475 14.3744 72.3365Z" fill="#E8E8E8"/>
<path d="M9.83179 72.7226C13.1872 72.7226 16.5426 72.7226 19.8979 72.7226C20.3883 72.7226 20.3883 71.9505 19.8979 71.9505C16.5426 71.9505 13.1872 71.9505 9.83179 71.9505C9.31557 71.9505 9.31557 72.7226 9.83179 72.7226Z" fill="#E8E8E8"/>
<path d="M123.502 234.992C131.916 234.992 140.33 234.992 148.745 234.992C149.235 234.992 149.235 234.22 148.745 234.22C140.33 234.22 131.916 234.22 123.502 234.22C122.986 234.22 122.986 234.992 123.502 234.992Z" fill="#E8E8E8"/>
<path d="M139.04 234.22C139.04 232.419 139.04 230.617 139.04 228.79C139.04 228.301 138.266 228.301 138.266 228.79C138.266 230.591 138.266 232.393 138.266 234.22C138.266 234.735 139.04 234.735 139.04 234.22Z" fill="#E8E8E8"/>
<path d="M136.691 228.816C140.175 228.816 143.686 228.816 147.17 228.816C147.661 228.816 147.661 228.043 147.17 228.043C143.686 228.043 140.175 228.043 136.691 228.043C136.201 228.043 136.201 228.816 136.691 228.816Z" fill="#E8E8E8"/>
<path d="M3.43073 221.455C11.845 221.455 20.2593 221.455 28.6735 221.455C29.1639 221.455 29.1639 220.683 28.6735 220.683C20.2593 220.683 11.845 220.683 3.43073 220.683C2.94033 220.683 2.94033 221.455 3.43073 221.455Z" fill="#E8E8E8"/>
<path d="M15.0971 211.366C15.0971 214.326 15.0971 217.311 15.0971 220.271C15.0971 220.76 15.8715 220.76 15.8715 220.271C15.8715 217.311 15.8715 214.326 15.8715 211.366C15.8715 210.877 15.0971 210.877 15.0971 211.366Z" fill="#E8E8E8"/>
<path d="M15.0971 210.208C11.7418 210.208 8.36056 210.208 5.00518 210.208C4.51477 210.208 4.51477 210.98 5.00518 210.98C8.36056 210.98 11.7418 210.98 15.0971 210.98C15.5875 210.98 15.5875 210.208 15.0971 210.208Z" fill="#E8E8E8"/>
<path d="M284.018 198.807C283.166 197.957 283.373 196.31 284.689 196.027C285.386 195.873 286.057 196.31 286.728 196.387C287.244 196.464 287.787 196.413 288.122 195.95C288.638 195.281 288.225 194.508 288.199 193.762C288.148 191.42 290.935 191.574 292.329 192.398C292.639 192.578 292.974 192.269 292.897 191.961C292.226 188.743 295.917 186.53 298.446 188.666C298.834 188.975 299.376 188.435 298.988 188.126C295.865 185.501 291.297 188.177 292.149 192.192C292.329 192.038 292.536 191.909 292.716 191.755C291.529 191.034 290.006 190.674 288.741 191.472C288.277 191.755 287.864 192.192 287.657 192.707C287.503 193.067 287.425 193.402 287.451 193.788C287.477 194.483 287.709 194.431 287.193 195.1C286.625 195.847 286.573 195.512 285.773 195.332C285.489 195.255 285.231 195.203 284.922 195.229C284.276 195.255 283.683 195.564 283.27 196.027C282.366 197.031 282.599 198.446 283.502 199.347C283.837 199.707 284.379 199.167 284.018 198.807Z" fill="#E8E8E8"/>
<path d="M289.051 199.579C288.767 197.237 292.613 197.211 293.697 195.59C293.981 195.178 294.084 194.714 294.265 194.277C294.601 193.479 295.194 192.964 296.072 192.733C297.491 192.372 298.963 193.016 300.253 193.556C300.718 193.736 300.924 192.99 300.46 192.81C298.085 191.832 294.885 191.086 293.568 193.968C293.104 194.998 292.949 195.564 291.865 196.104C291.219 196.413 290.548 196.593 289.929 196.954C288.948 197.52 288.174 198.395 288.303 199.579C288.354 200.068 289.129 200.068 289.051 199.579Z" fill="#E8E8E8"/>
<path d="M178.04 124.736C178.556 126.023 179.072 127.336 179.588 128.623C179.64 128.468 179.717 128.34 179.769 128.185C179.485 128.365 179.201 128.545 178.917 128.751C178.478 127.722 178.659 127.464 179.485 127.928C179.975 128.237 180.208 128.906 180.311 129.446C180.543 130.682 180.285 131.968 179.872 133.152C179.769 133.461 180.079 133.667 180.337 133.616C181.886 133.307 182.505 135.16 182.195 136.318C181.963 137.167 181.498 137.914 181.034 138.66C180.776 139.072 181.447 139.458 181.705 139.046C182.531 137.759 183.486 136.163 182.918 134.568C182.479 133.384 181.395 132.638 180.13 132.869C180.285 133.024 180.44 133.178 180.595 133.332C181.111 131.84 181.447 129.961 180.801 128.442C180.363 127.439 179.356 126.667 178.22 127.001C177.343 127.259 176.904 128.134 177.317 128.983C178.014 130.398 179.227 129.446 180.13 128.854C180.259 128.777 180.363 128.571 180.311 128.417C179.795 127.13 179.279 125.817 178.762 124.53C178.608 124.093 177.859 124.273 178.04 124.736Z" fill="#E8E8E8"/>
<path d="M25.3956 2.9762C24.9052 1.74084 26.5571 1.40626 27.3314 1.84379C27.925 2.17836 28.3122 2.77031 28.6735 3.31078C29.0091 3.79978 29.3704 4.34025 29.5511 4.90646C29.7576 5.39545 29.7318 5.85871 29.4737 6.32197C28.5703 6.73376 28.1057 6.63081 28.0799 6.03887C27.8476 5.18956 28.751 4.62335 29.5253 4.64909C30.3254 4.67483 31.0739 5.13808 31.616 5.70429C32.5451 6.68228 32.8807 7.96912 32.7516 9.28169C32.9839 9.20448 33.242 9.15301 33.4743 9.0758C32.9581 8.32943 33.4485 7.5316 34.1454 7.14555C34.739 6.83671 35.4101 6.91392 35.978 7.22276C36.9071 7.71175 37.5524 8.61254 38.1461 9.43611C38.43 9.8479 39.101 9.46185 38.8171 9.05006C37.8363 7.68602 36.3651 5.7815 34.4293 6.21902C33.0097 6.52786 31.8741 8.17501 32.8032 9.46185C33.0355 9.79643 33.4743 9.642 33.5259 9.25595C33.7582 6.81097 31.9515 3.4652 29.0607 3.87699C28.0283 4.03141 27.2798 4.75204 27.2798 5.80724C27.2798 6.63081 27.796 7.48012 28.6735 7.5316C29.706 7.60881 30.4029 6.60508 30.4545 5.67856C30.5319 4.39172 29.5253 3.00194 28.751 2.04968C28.0283 1.20037 26.97 0.479746 25.8344 0.917269C24.9052 1.25185 24.2857 2.17836 24.6729 3.13062C24.8278 3.64536 25.5763 3.43946 25.3956 2.9762Z" fill="#E8E8E8"/>
<path d="M161.366 40.7319C160.282 40.0885 161.056 38.184 162.269 38.9818C163.431 39.7539 161.882 41.0665 161.134 40.1657C160.824 39.7796 160.282 40.3201 160.592 40.7061C161.185 41.4268 162.321 41.3753 162.992 40.7834C163.766 40.0885 163.56 38.9561 162.76 38.3899C161.96 37.8236 160.798 37.9266 160.308 38.8531C159.817 39.7282 160.153 40.912 161.005 41.401C161.392 41.6327 161.779 40.9893 161.366 40.7319Z" fill="#E8E8E8"/>
<path d="M264.608 22.7162C264.479 22.1242 264.918 21.4808 265.512 21.3521C266.054 21.2492 266.544 21.6867 266.673 22.1757C267.009 23.3339 265.486 23.8743 264.763 23.0765C264.428 22.7162 263.886 23.2566 264.221 23.617C265.563 25.1097 268.144 23.6427 267.319 21.7382C266.957 20.8889 266.054 20.3484 265.151 20.6315C264.196 20.9403 263.628 21.9441 263.834 22.9221C263.989 23.4111 264.738 23.2052 264.608 22.7162Z" fill="#E8E8E8"/>
<path d="M180.827 235.739C179.846 235.275 179.924 233.937 180.827 233.422C181.705 232.933 182.531 233.371 183.331 233.731C184.002 234.04 184.776 234.323 185.37 233.731C185.912 233.217 185.809 232.419 185.834 231.75C185.938 229.15 188.467 229.665 190.196 230.308C190.661 230.488 190.868 229.742 190.403 229.562C188.88 228.97 186.764 228.404 185.551 229.896C185.189 230.334 185.086 230.849 185.06 231.389C185.034 231.75 185.189 232.547 184.983 232.882C184.415 233.731 183.641 232.959 183.047 232.702C181.911 232.213 180.285 232.341 179.588 233.525C178.995 234.529 179.356 235.893 180.414 236.382C180.879 236.614 181.266 235.945 180.827 235.739Z" fill="#E8E8E8"/>
<path d="M193.32 175.077C192.545 184.523 192.958 193.994 194.559 203.336C194.636 203.825 195.384 203.619 195.307 203.13C193.733 193.865 193.32 184.446 194.094 175.077C194.146 174.588 193.371 174.588 193.32 175.077Z" fill="#E8E8E8"/>
<path d="M193.836 175.669C197.862 177.059 202.018 177.986 206.251 178.449C210.226 178.861 214.794 179.298 218.614 177.806C219.079 177.625 218.872 176.879 218.408 177.059C214.691 178.526 210.174 178.089 206.251 177.677C202.095 177.239 197.991 176.287 194.042 174.923C193.552 174.743 193.371 175.489 193.836 175.669Z" fill="#E8E8E8"/>
<path d="M199.979 176.724C198.637 174.64 197.527 172.426 196.752 170.059C196.391 168.926 196.081 167.794 195.849 166.636C195.72 165.941 195.591 165.246 195.513 164.551C195.513 164.474 195.23 162.647 195.772 162.904C196.03 163.033 196.468 162.801 196.339 162.466C194.92 158.889 194.146 155.131 194.068 151.271C193.939 151.4 193.81 151.528 193.681 151.657C193.887 151.734 194.068 151.811 194.275 151.889C194.533 152.197 195.023 151.863 194.92 151.503C194.404 149.855 194.068 148.157 193.965 146.407C193.939 145.995 194.016 141.362 194.3 141.44C194.61 141.517 194.817 141.234 194.765 140.976C194.275 138.068 194.042 135.108 194.171 132.174C194.223 130.707 194.352 129.266 194.584 127.825C194.791 126.512 194.894 124.917 195.926 123.964C195.72 123.939 195.513 123.913 195.307 123.887C197.475 127.954 198.688 132.406 199.798 136.833C200.882 141.182 201.837 145.583 202.663 150.01C204.341 159.146 205.399 168.386 205.864 177.677C205.889 178.166 206.664 178.166 206.638 177.677C206.173 168.334 205.115 159.018 203.412 149.804C202.56 145.223 201.579 140.667 200.443 136.138C199.333 131.788 198.12 127.465 195.978 123.475C195.849 123.244 195.539 123.244 195.359 123.398C194.481 124.196 194.223 125.251 194.016 126.358C193.733 127.928 193.526 129.549 193.423 131.145C193.216 134.491 193.423 137.836 193.991 141.156C194.145 141.002 194.3 140.848 194.455 140.693C192.958 140.281 193.139 143.498 193.113 144.219C193.01 146.741 193.397 149.263 194.146 151.683C194.352 151.554 194.584 151.425 194.791 151.297C194.455 150.911 194.171 150.782 193.655 150.833C193.449 150.859 193.268 150.988 193.268 151.219C193.345 155.131 194.12 158.966 195.565 162.621C195.746 162.466 195.952 162.338 196.133 162.183C193.552 160.948 195.049 166.764 195.255 167.639C196.03 170.985 197.423 174.177 199.282 177.059C199.592 177.522 200.263 177.136 199.979 176.724Z" fill="#E8E8E8"/>
<path d="M204.083 151.014C203.85 149.366 203.799 147.694 204.005 146.046C204.057 145.635 205.038 140.796 205.528 141.002C205.786 141.131 206.096 140.976 206.122 140.667C206.277 137.373 207.309 134.439 208.522 131.402C209.735 128.391 210.922 125.483 212.936 122.883C212.755 122.883 212.574 122.883 212.394 122.883C213.865 124.556 213.684 127.104 213.762 129.189C213.865 131.531 213.942 133.873 213.968 136.215C214.02 140.822 213.942 145.429 213.736 150.036C213.297 159.455 212.239 168.849 210.639 178.14C210.561 178.629 211.31 178.835 211.387 178.346C213.065 168.669 214.123 158.863 214.562 149.032C214.768 144.09 214.82 139.149 214.717 134.208C214.665 131.737 214.613 129.266 214.433 126.795C214.329 125.174 214.071 123.578 212.936 122.317C212.807 122.163 212.523 122.163 212.394 122.317C210.406 124.891 209.167 127.722 207.98 130.733C206.664 133.976 205.554 137.116 205.373 140.667C205.58 140.564 205.76 140.436 205.967 140.333C204.392 139.638 203.876 142.984 203.67 143.885C203.102 146.304 203.05 148.749 203.412 151.194C203.386 151.708 204.134 151.503 204.083 151.014Z" fill="#E8E8E8"/>
<path d="M194.92 203.98C202.999 206.579 211.748 206.45 219.75 203.619C220.214 203.465 220.008 202.719 219.543 202.873C211.671 205.653 203.076 205.781 195.126 203.233C194.636 203.079 194.429 203.825 194.92 203.98Z" fill="#E8E8E8"/>
<path d="M218.511 177.548C218.82 181.718 219.156 185.887 219.44 190.056C219.724 194.303 219.827 198.601 219.13 202.822C219.053 203.311 219.801 203.516 219.879 203.027C220.576 198.884 220.524 194.715 220.24 190.545C219.956 186.221 219.621 181.872 219.285 177.548C219.259 177.059 218.485 177.059 218.511 177.548Z" fill="#E8E8E8"/>
<path d="M80.7594 210.594C86.0248 207.789 91.3159 204.983 96.5813 202.178C99.0591 202.59 102.466 203.13 106.544 203.696C114.7 204.829 127.838 206.656 144.46 207.145C161.082 207.634 173.549 206.579 178.298 206.116C189.732 205.035 196.649 203.568 202.302 202.049C207.438 200.66 211.671 199.141 214.691 197.983C217.169 198.806 219.93 199.913 222.873 201.432C224.55 202.307 226.099 203.207 227.467 204.108C222.615 205.498 216.085 207.274 208.316 209.075C191.952 212.884 179.408 214.686 176.775 215.072C161.727 217.208 140.279 220.219 113.307 217.105C104.918 216.102 93.7421 214.274 80.7594 210.594Z" fill="white"/>
<path d="M80.4755 210.62C80.6045 211.701 80.7594 212.756 80.8885 213.837C82.8243 214.377 85.6634 215.149 89.1737 215.921C95.8844 217.414 102.698 218.444 111.603 219.138C144.486 221.712 170.761 219.422 170.761 219.422C183.899 218.263 196.649 217.08 213.116 212.293C219.311 210.491 224.37 208.664 227.983 207.248C227.699 206.039 227.415 204.829 227.132 203.619C226.125 204.031 224.628 204.623 222.795 205.292C210.355 209.822 200.108 211.315 190.971 212.421C170.89 214.892 160.85 216.102 146.112 216.333C129.335 216.616 106.828 215.613 80.4755 210.62Z" fill="#161616"/>
<path d="M80.2948 211.109C80.2948 211.932 80.2948 212.756 80.2948 213.579C80.2948 214.068 81.0691 214.068 81.0691 213.579C81.0691 212.756 81.0691 211.932 81.0691 211.109C81.0691 210.594 80.2948 210.594 80.2948 211.109Z" fill="#161616"/>
<path d="M80.5787 214.3C99.8593 219.499 119.992 220.168 139.84 220.451C158.914 220.709 178.117 219.885 196.907 216.41C207.49 214.454 217.917 211.598 227.983 207.711C228.448 207.531 228.241 206.785 227.777 206.965C210.019 213.837 191.152 217.337 172.181 218.804C153.055 220.271 133.749 219.936 114.623 218.778C103.189 218.058 91.858 216.565 80.7852 213.579C80.2948 213.425 80.0883 214.171 80.5787 214.3Z" fill="#161616"/>
<path d="M227.983 207.171C228.138 206.09 228.19 204.983 228.087 203.902C228.035 203.413 227.261 203.413 227.312 203.902C227.39 204.932 227.39 205.961 227.235 206.965C227.157 207.428 227.906 207.66 227.983 207.171Z" fill="#161616"/>
<path d="M80.9143 211.031C86.3345 208.458 91.6515 205.704 96.8652 202.719C97.304 202.461 96.9168 201.818 96.4781 202.049C91.2643 205.009 85.9473 207.789 80.5271 210.362C80.0625 210.568 80.4497 211.237 80.9143 211.031Z" fill="#161616"/>
<path d="M96.6588 202.358C127.451 208.2 159.456 209.281 190.506 204.855C198.766 203.671 206.973 201.843 214.613 198.446C215.078 198.24 214.665 197.571 214.226 197.777C207.361 200.814 200.03 202.59 192.623 203.748C185.086 204.932 177.472 205.652 169.858 206.141C154.397 207.119 138.859 206.862 123.45 205.395C114.52 204.546 105.667 203.259 96.8652 201.612C96.3748 201.535 96.1684 202.281 96.6588 202.358Z" fill="#161616"/>
<path d="M214.458 198.318C219.053 199.81 223.363 201.895 227.39 204.546C227.803 204.829 228.19 204.16 227.777 203.877C223.699 201.2 219.311 199.09 214.665 197.571C214.175 197.417 213.968 198.163 214.458 198.318Z" fill="#161616"/>
<path d="M80.9659 210.62C90.0771 213.682 99.5754 215.124 109.125 215.896C118.804 216.668 128.561 216.899 138.265 216.899C157.546 216.899 176.878 215.587 195.875 212.138C206.664 210.182 217.349 207.531 227.751 204.057C228.216 203.902 228.009 203.156 227.544 203.31C209.245 209.384 190.222 212.936 171.019 214.686C151.919 216.436 132.613 216.539 113.461 215.407C102.518 214.738 91.5483 213.374 81.1208 209.873C80.7078 209.719 80.5013 210.465 80.9659 210.62Z" fill="#161616"/>
<path d="M95.8328 63.6375C127.373 56.354 159.843 54.7583 192.106 54.4495C201.243 54.3465 210.38 54.3723 219.517 54.3723C220.008 54.3723 220.008 53.6002 219.517 53.6002C187.151 53.5487 154.629 53.523 122.495 57.9754C113.461 59.2365 104.505 60.8322 95.6263 62.8911C95.1359 63.0198 95.3424 63.7662 95.8328 63.6375Z" fill="#161616"/>
<path d="M221.118 53.6773C221.453 65.6449 221.66 79.517 221.582 94.9332C221.531 103.89 221.453 99.6173 220.653 136.884C220.189 158.348 220.059 166.43 218.537 178.835C217.556 186.916 216.369 193.556 215.491 198.06C222.15 199.913 228.5 201.663 234.075 203.207C242.695 205.601 244.993 206.244 248.425 206.733C253.742 207.454 260.221 207.557 267.706 206.038C270.468 183.493 271.99 164.268 272.868 149.546C276.017 97.8157 273.074 73.9836 271.939 65.6192C270.39 54.3465 268.48 45.0813 267.009 38.6729C261.485 39.7281 256.994 40.8605 253.846 41.7098C243.031 44.6695 234.462 48.144 227.286 51.0779C224.628 52.1846 222.486 53.0854 221.118 53.6773Z" fill="white"/>
<path d="M43.1791 39.1362C42.9726 41.3495 42.7403 44.0776 42.5338 46.4454C38.2493 95.1649 36.107 119.538 35.4101 135.211C34.6874 152.043 34.6358 176.441 38.2235 206.785C38.5074 207.403 39.0236 208.252 39.9528 208.947C41.1659 209.848 42.2757 209.822 44.4696 210.439C46.1989 210.928 47.1023 211.417 47.9283 211.726C50.3028 212.653 55.6198 213.708 62.3822 213.451C72.087 213.065 79.5463 210.105 85.0181 207.866C90.1544 205.781 94.2583 203.542 97.0975 201.843C95.4972 187.508 94.31 172.375 93.6389 156.495C92.2709 122.729 93.6389 91.7162 96.4522 64.075C95.2649 63.6118 93.5356 62.9683 91.4966 62.1448C87.9864 60.7292 79.5721 57.3063 64.7568 50.1C58.8978 47.269 51.5676 43.5886 43.1791 39.1362Z" fill="white"/>
<path d="M266.854 38.5699C267.164 40.2686 267.577 42.6106 268.041 45.4159C268.687 49.4051 270.132 58.8504 271.19 71.2555C272.274 84.1753 272.532 95.2936 272.558 104.147C272.636 122.111 271.965 135.288 270.209 166.018C269.667 175.592 268.867 189.619 267.861 206.733C268.919 206.656 269.951 206.605 271.01 206.527C271.526 202.255 272.223 195.898 272.765 188.126C273.178 182.515 273.358 178.423 273.539 174.022C274.442 153.845 274.597 154.076 274.907 145.84C275.526 129.601 275.397 117.118 275.294 105.897C275.217 98.1504 274.984 90.8154 274.52 76.1455C274.184 66.1597 273.849 57.3062 271.577 45.802C270.984 42.868 270.416 40.423 270.003 38.7501C268.945 38.6986 267.912 38.6472 266.854 38.5699Z" fill="#161616"/>
<path d="M39.2301 39.5994C39.0494 40.5002 38.7655 41.89 38.4816 43.5886C37.6557 48.5043 37.4492 52.2104 37.3717 53.42C36.8039 62.1705 35.6682 66.4428 34.0164 85.874C33.7066 89.4256 33.4743 92.5398 33.0097 98.7938C32.0547 111.559 31.5902 117.942 31.2546 125.148C30.8933 133.204 30.8417 138.892 30.7642 150.267C30.6868 160.099 30.6352 167.202 30.8933 176.493C31.0998 183.905 31.5127 193.968 32.5193 205.961C34.61 206.579 36.6749 207.197 38.7655 207.814C38.7397 206.656 38.6623 204.572 38.5074 201.972C37.888 190.416 36.8813 185.732 36.649 176.107C36.5716 173.147 36.6232 171.191 36.649 168.386C36.933 148.26 36.5974 139.072 36.7781 125.997C37.0878 104.662 38.5332 87.9844 39.7721 73.7777C40.9336 60.3432 42.2499 48.8389 43.3856 39.8311C41.966 39.7538 40.5981 39.6766 39.2301 39.5994Z" fill="#161616"/>
<path d="M220.498 54.1149C221.453 73.0056 221.324 91.9478 221.066 110.838C220.782 129.317 220.653 147.848 219.233 166.301C218.433 176.802 217.169 187.276 215.207 197.648C215.104 198.137 215.852 198.343 215.956 197.854C219.388 179.71 220.653 161.257 221.221 142.829C221.815 124.016 222.073 105.151 222.047 86.3114C222.021 75.5792 221.84 64.847 221.298 54.1149C221.247 53.6259 220.472 53.6259 220.498 54.1149Z" fill="#161616"/>
<path d="M221.453 54.1149C235.778 47.0373 250.981 41.9415 266.673 38.9303C267.164 38.8273 266.957 38.081 266.467 38.1839C250.722 41.2208 235.443 46.3682 221.066 53.4458C220.627 53.6774 221.014 54.3465 221.453 54.1149Z" fill="#161616"/>
<path d="M266.415 38.6987C270.674 60.0858 271.965 81.9363 271.939 103.71C271.887 125.483 270.597 147.205 269.538 168.952C268.919 181.486 268.3 193.994 267.68 206.528C267.654 207.017 268.429 207.017 268.454 206.528C269.564 184.343 270.726 162.158 271.732 139.947C272.713 118.174 273.333 96.3488 271.861 74.6013C271.035 62.4794 269.564 50.4088 267.19 38.5185C267.061 38.0038 266.312 38.2097 266.415 38.6987Z" fill="#161616"/>
<path d="M215.336 197.803C216.498 199.141 218.562 199.399 220.189 199.888C222.408 200.557 224.654 201.226 226.873 201.895C231.365 203.233 235.83 204.649 240.372 205.781C249.251 207.943 258.362 208.381 267.37 206.836C267.861 206.759 267.654 206.013 267.164 206.09C258.285 207.608 249.303 207.171 240.579 205.035C236.423 204.031 232.345 202.744 228.267 201.509C226.202 200.891 224.138 200.274 222.073 199.656C221.04 199.347 220.008 199.038 218.975 198.729C217.891 198.395 216.678 198.163 215.904 197.262C215.543 196.902 215.001 197.443 215.336 197.803Z" fill="#161616"/>
<path d="M266.932 38.7243C267.887 38.956 268.842 39.1876 269.822 39.4192C270.313 39.5479 270.519 38.8016 270.029 38.6729C269.074 38.4412 268.119 38.2096 267.138 37.978C266.648 37.875 266.441 38.6214 266.932 38.7243Z" fill="#161616"/>
<path d="M269.771 39.1619C272.352 49.5595 273.049 60.4203 273.797 71.1011C274.572 82.0134 274.984 92.9515 275.165 103.915C275.475 125.663 274.726 147.41 273.487 169.132C272.791 181.434 271.913 193.736 271.01 206.038C270.984 206.527 271.758 206.527 271.784 206.038C273.41 184.162 274.881 162.286 275.578 140.358C276.275 118.482 276.223 96.5546 274.83 74.6785C274.081 62.7881 273.41 50.5889 270.545 38.9817C270.39 38.467 269.642 38.6729 269.771 39.1619Z" fill="#161616"/>
<path d="M268.093 206.965C269.229 206.862 270.339 206.759 271.474 206.656C271.965 206.605 271.965 205.833 271.474 205.884C270.339 205.987 269.229 206.09 268.093 206.193C267.603 206.244 267.603 207.016 268.093 206.965Z" fill="#161616"/>
<path d="M95.807 63.8691C94.0777 81.7046 93.0453 99.5916 92.7098 117.504C92.3742 135.494 92.7356 153.51 93.8196 171.474C94.4132 181.563 95.265 191.626 96.2974 201.663C96.349 202.152 97.1234 202.152 97.0717 201.663C95.2134 183.854 94.0519 165.967 93.5873 148.054C93.1227 130.064 93.355 112.048 94.31 94.084C94.852 83.9952 95.6005 73.9322 96.5555 63.8691C96.633 63.3801 95.8586 63.3801 95.807 63.8691Z" fill="#161616"/>
<path d="M43.6695 39.7538C60.4206 49.0448 77.817 57.1776 95.6779 64.1007C96.1425 64.2809 96.349 63.5345 95.8844 63.3544C78.0751 56.4569 60.7562 48.3499 44.0567 39.0847C43.6179 38.8273 43.2308 39.4965 43.6695 39.7538Z" fill="#161616"/>
<path d="M42.8694 39.5737C40.0044 61.3469 38.017 83.2489 36.933 105.202C35.8489 127.156 35.694 149.135 36.4167 171.088C36.8297 183.416 37.5266 195.744 38.5074 208.046C38.559 208.535 39.3333 208.535 39.2817 208.046C37.5266 186.144 36.7007 164.165 36.7523 142.212C36.8039 120.232 37.7847 98.2791 39.6431 76.3772C40.7013 64.075 42.0435 51.8244 43.6437 39.5737C43.6953 39.0847 42.921 39.0847 42.8694 39.5737Z" fill="#161616"/>
<path d="M38.4816 208.535C52.8581 216.333 70.0738 214.66 84.6827 208.484C89.0705 206.631 93.3034 204.391 97.3815 201.946C97.7945 201.689 97.4073 201.02 96.9943 201.277C83.3921 209.487 67.4411 215.227 51.3611 212.241C46.9991 211.443 42.7662 209.976 38.8688 207.866C38.4558 207.634 38.0428 208.303 38.4816 208.535Z" fill="#161616"/>
<path d="M32.7774 206.399C34.5842 207.248 36.4426 207.969 38.3267 208.612C38.7913 208.767 38.9978 208.02 38.5332 207.866C36.7007 207.248 34.9197 206.553 33.1646 205.73C32.7 205.524 32.3129 206.193 32.7774 206.399Z" fill="#161616"/>
<path d="M38.7139 39.7538C35.9264 61.3212 33.6034 82.94 32.0806 104.636C30.5836 126.229 29.8609 147.874 30.3254 169.518C30.5836 181.769 31.203 194.02 32.2612 206.219C32.3129 206.708 33.0872 206.708 33.0356 206.219C31.1772 184.574 30.6352 162.852 31.1514 141.131C31.6418 119.486 33.1388 97.8673 35.2811 76.2999C36.4942 64.1007 37.9138 51.9015 39.4882 39.7281C39.5657 39.2648 38.7913 39.2648 38.7139 39.7538Z" fill="#161616"/>
<path d="M39.1527 40.2943C40.6497 39.9854 42.1467 39.8825 43.6953 39.9597C44.1857 39.9854 44.1857 39.2133 43.6953 39.1876C42.0951 39.1104 40.5206 39.2391 38.9462 39.5479C38.4558 39.6509 38.6623 40.3972 39.1527 40.2943Z" fill="#161616"/>
<path d="M230.384 55.865C231.468 85.7195 231.416 115.6 230.177 145.454C229.842 153.819 229.403 162.157 228.861 170.522C228.835 171.011 229.609 171.011 229.635 170.522C231.519 140.719 232.242 110.839 231.803 80.9582C231.674 72.5938 231.468 64.2294 231.158 55.865C231.132 55.376 230.358 55.376 230.384 55.865Z" fill="#161616"/>
<path d="M242.902 45.1585C243.934 65.928 244.45 86.749 244.425 107.544C244.425 128.339 243.908 149.16 242.876 169.93C242.308 181.692 241.56 193.428 240.656 205.163C240.631 205.652 241.405 205.652 241.431 205.163C243.031 184.42 244.115 163.65 244.709 142.855C245.276 122.06 245.354 101.239 244.915 80.4435C244.657 68.6818 244.244 56.9202 243.676 45.1585C243.65 44.6695 242.876 44.6695 242.902 45.1585Z" fill="#161616"/>
<path d="M257.924 40.5774C259.369 62.1705 260.247 83.815 260.479 105.485C260.711 127.233 260.35 148.955 259.369 170.676C258.827 182.85 258.078 195.023 257.123 207.171C257.098 207.66 257.872 207.66 257.898 207.171C259.55 185.578 260.634 163.933 261.073 142.289C261.511 120.567 261.356 98.8195 260.582 77.072C260.143 64.8986 259.524 52.7251 258.698 40.5516C258.672 40.0626 257.898 40.0626 257.924 40.5774Z" fill="#161616"/>
<path d="M227.725 180.173C227.132 186.916 226.048 193.608 224.473 200.196C224.37 200.685 225.093 200.891 225.222 200.402C226.822 193.736 227.906 186.993 228.5 180.173C228.551 179.684 227.777 179.684 227.725 180.173Z" fill="#161616"/>
<path d="M52.1354 44.7724C49.0381 66.3655 47.7218 88.1902 47.5153 109.989C47.3346 131.917 48.238 153.819 49.5802 175.695C50.3287 188.074 51.2062 200.428 52.0838 212.807C52.1096 213.296 52.8839 213.296 52.8581 212.807C51.3095 191.008 49.7608 169.209 48.9091 147.385C48.0573 125.611 47.9283 103.787 49.193 82.0134C49.9157 69.6341 51.103 57.2547 52.8581 44.9783C52.9614 44.5151 52.2129 44.2834 52.1354 44.7724Z" fill="#161616"/>
<path d="M66.9765 51.9788C65.0149 72.8512 63.6986 93.8009 63.2598 114.776C62.8468 135.726 63.3372 156.676 65.0666 177.574C66.0215 189.181 67.3637 200.737 69.1188 212.241C69.1962 212.73 69.9447 212.524 69.8673 212.035C66.7184 191.291 64.9117 170.342 64.2406 149.366C63.5695 128.674 63.9567 107.93 65.0924 87.2638C65.7376 75.5021 66.641 63.7404 67.7508 52.0045C67.8025 51.4898 67.0282 51.4898 66.9765 51.9788Z" fill="#161616"/>
<path d="M81.8435 58.1299C79.314 77.6125 77.8428 97.2239 77.4557 116.861C77.0685 136.498 77.7396 156.161 79.4689 175.721C80.4497 186.633 81.7402 197.494 83.3663 208.329C83.4437 208.818 84.1922 208.612 84.1148 208.123C81.1982 188.718 79.3398 169.184 78.5397 149.598C77.7396 130.064 78.0235 110.478 79.3398 90.9441C80.0883 79.9803 81.1724 69.0165 82.592 58.1041C82.6952 57.6409 81.9209 57.6409 81.8435 58.1299Z" fill="#161616"/>
<path opacity="0.12" d="M252.142 42.3274C255.007 53.9861 257.33 67.6523 258.104 82.9657C260.04 121.931 250.851 153.767 242.85 174.202C237.198 183.236 231.571 192.269 225.918 201.303C231.416 203.671 239.572 206.425 249.742 207.248C256.762 207.814 262.853 207.3 267.603 206.527C267.654 205.395 268.506 188.177 268.558 187.045C271.371 129.369 271.552 125.431 271.655 121.468C272.119 105.331 272.042 82.1678 269.28 53.2655C268.325 48.3498 267.37 43.4341 266.415 38.5441C261.692 39.7795 256.917 41.0406 252.142 42.3274Z" fill="#3F3F3F"/>
<path opacity="0.13" d="M72.0096 54.9127C71.3385 57.718 70.3319 61.9131 69.1446 67.0347C63.8793 89.8889 60.0077 106.695 57.9428 122.163C54.2777 149.418 50.7416 175.824 65.8151 197.494C70.2029 203.799 75.0036 208.046 78.2042 210.568C75.1069 211.778 71.2611 212.884 66.7701 213.425C54.2777 214.892 44.2632 210.851 39.3592 208.432C37.5008 191.369 36.2103 173.096 35.7973 153.767C34.8681 110.993 38.3525 72.5423 43.6695 39.4707C53.0904 44.618 62.5371 49.7654 72.0096 54.9127Z" fill="#3F3F3F"/>
<path d="M44.935 27.2201C44.5995 27.4775 44.8576 28.4812 45.3222 30.2056C45.5029 30.8747 45.6835 31.3895 45.7868 31.7241C45.5803 33.1138 45.3996 34.5036 45.1931 35.8934C44.7802 35.9449 43.7219 36.1765 42.7411 37.0258C41.8378 37.8237 41.4764 38.7502 41.3474 39.162C42.1733 39.2392 43.1799 39.4193 44.264 39.7539C45.8384 40.2429 47.0773 40.9121 47.9807 41.4783C47.9807 41.7871 48.0323 42.379 48.4453 42.8166C48.8066 43.1769 49.2454 43.2284 49.5035 43.2798C50.4327 43.4342 51.5426 43.6401 52.9621 43.949C53.5816 44.3093 54.614 44.9012 55.8787 45.5961C60.1633 47.9124 61.712 48.2985 65.9965 50.5633C68.7583 52.0303 68.526 52.0818 70.4618 53.0083C73.43 54.4495 75.9852 55.2989 77.7146 55.7879C78.4373 54.99 79.5987 53.4458 80.244 51.2067C80.7602 49.4309 80.7344 47.8867 80.6312 46.883C81.0699 47.1146 81.7668 47.372 82.567 47.269C84.6318 47.0374 85.9482 44.6953 86.3611 43.0225C86.7225 41.5555 86.3869 40.6289 86.103 38.9046C85.4577 35.0441 84.8899 31.5954 86.4902 29.4078C87.8323 27.5805 90.5941 26.7311 92.8138 24.2862C93.0203 24.0545 93.4074 23.617 93.2784 23.4111C93.0461 23.0251 91.2393 23.6942 90.3618 24.0803C89.7939 24.3376 85.5352 26.2936 84.2446 30.7203C84.0382 31.4152 84.0123 33.4227 83.9865 37.4119C83.9607 40.3201 84.0124 41.9673 82.8509 42.9195C82.2572 43.4085 81.3797 43.6916 80.5795 43.5115C79.3922 43.2541 78.8244 42.0959 78.3082 41.3238C76.966 39.2906 75.0561 38.4413 72.7073 37.2832C70.8747 36.3824 69.3003 36.0478 66.1256 35.3529C63.1315 34.7095 62.2282 34.7867 60.9376 33.8345C59.4922 32.7535 58.6921 31.2351 58.2791 30.3857C57.8662 29.5879 57.2209 28.3268 56.937 26.5252C56.7821 25.47 56.8079 24.7237 56.5498 24.6722C56.0852 24.5693 55.8529 26.7054 54.2785 27.4518C53.3235 27.915 52.704 27.4775 51.0264 27.529C49.9423 27.5547 48.7034 27.7863 47.3096 28.404C46.845 28.0694 45.3996 26.8856 44.935 27.2201Z" fill="black"/>
<path d="M45.7086 35.6875C45.1665 31.441 49.0381 27.5805 53.3227 28.018C57.3749 28.4298 60.0592 33.3455 59.9302 37.0258C59.9044 37.5148 60.6787 37.5148 60.7045 37.0258C60.8336 32.9594 57.7879 27.6062 53.3227 27.2459C48.6252 26.8598 44.3406 31.0034 44.9342 35.6875C45.0117 36.1508 45.786 36.1765 45.7086 35.6875Z" fill="black"/>
<path d="M45.6311 38.3641C47.2056 41.4268 50.5868 43.5886 54.1228 43.1254C57.3492 42.6879 60.0851 40.0885 60.5755 36.8714C60.6529 36.3824 59.9044 36.1765 59.827 36.6655C59.3882 39.5995 56.962 41.9672 54.0196 42.3533C50.7933 42.7908 47.7476 40.7833 46.3022 37.978C46.0699 37.5405 45.3988 37.9266 45.6311 38.3641Z" fill="black"/>
<path d="M48.4187 42.096C48.3413 41.118 51.1288 40.7062 51.8257 40.5518C53.0904 40.2686 54.3809 40.1142 55.6715 40.1142C58.0719 40.1142 60.369 40.7319 62.4081 41.993C62.821 42.2504 63.234 41.5812 62.7952 41.3239C60.1625 39.7024 57.0911 39.1362 54.0454 39.4193C52.4451 39.5738 50.8707 39.9083 49.3479 40.4231C48.5219 40.7062 47.5411 41.0665 47.6186 42.096C47.6702 42.5849 48.4703 42.5849 48.4187 42.096Z" fill="black"/>
<path d="M59.5173 33.1911C61.1433 35.147 63.776 35.6103 66.1248 36.125C69.2479 36.8457 72.4742 37.4891 75.2101 39.2134C80.8627 42.7651 81.9209 50.5118 77.4557 55.479C77.1201 55.8393 77.6621 56.4055 77.9977 56.0195C81.9725 51.6185 82.0758 44.8755 77.9719 40.5003C75.8038 38.184 72.7065 36.9743 69.6866 36.1765C66.6152 35.3787 62.2016 35.25 60.0335 32.6249C59.7495 32.2645 59.2075 32.805 59.5173 33.1911Z" fill="black"/>
<path d="M77.5847 46.6513C76.2942 44.9526 74.0228 44.3607 72.0354 45.1843C69.5834 46.188 69.4543 49.1992 69.7383 51.4897C69.7899 51.9787 70.5642 51.9787 70.5126 51.4897C70.2803 49.6882 70.2545 46.9086 72.1128 46.0078C73.7131 45.21 75.8038 45.6218 76.8878 47.063C77.1975 47.4491 77.8686 47.063 77.5847 46.6513Z" fill="black"/>
<path d="M70.4093 51.1295C68.9897 50.0486 67.5185 49.1221 65.686 49.6111C65.4795 49.6625 65.3763 49.8942 65.4279 50.0743C65.8925 51.8759 68.7316 52.6223 70.2287 53.2657C72.5258 54.2694 74.8746 55.1187 77.2491 55.8651C77.7137 56.0195 77.9202 55.2731 77.4556 55.1187C75.5456 54.5268 73.6873 53.8833 71.8289 53.1113C70.8223 52.6995 69.8415 52.2619 68.8607 51.7987C67.9831 51.3869 66.4087 50.8979 66.1506 49.8684C66.0732 50.0229 65.9699 50.1773 65.8925 50.3317C67.4927 49.8942 68.8091 50.8464 69.9964 51.7729C70.4093 52.1075 70.7965 51.4384 70.4093 51.1295Z" fill="black"/>
<path d="M47.7218 42.0187C48.7284 43.6659 50.7674 43.949 52.5484 44.2063C55.1811 44.5924 57.8137 44.5924 60.4464 44.3093C60.9368 44.2578 60.9368 43.4857 60.4464 43.5372C58.33 43.7688 56.2135 43.8203 54.097 43.6144C52.3161 43.4342 49.4511 43.3313 48.3671 41.6327C48.1348 41.1951 47.4637 41.5812 47.7218 42.0187Z" fill="black"/>
<path d="M41.7079 39.3936C42.0435 37.592 43.6179 36.6655 45.373 36.5883C45.244 36.4853 45.1149 36.4081 45.0117 36.3052C45.1407 36.9228 45.3214 37.5148 45.5795 38.081C45.7602 38.5443 46.5087 38.3384 46.328 37.8751C46.0957 37.2832 45.915 36.717 45.7602 36.0993C45.7344 35.9448 45.5537 35.8162 45.3988 35.8162C43.334 35.9191 41.3724 37.0515 40.9852 39.1877C40.882 39.6767 41.6305 39.8826 41.7079 39.3936Z" fill="black"/>
<path d="M46.199 31.4152C45.8118 30.3086 45.5279 29.1504 45.4246 27.9665C45.4246 27.8636 45.3988 27.7606 45.3988 27.6577C45.373 27.4261 45.3988 27.4518 45.5021 27.7349C45.7344 27.8893 45.9667 28.0695 46.199 28.2496C46.5861 28.5842 46.9475 28.9445 47.2572 29.3306C47.5927 29.7166 48.1347 29.1504 47.7992 28.7901C47.3604 28.2754 45.5279 26.165 44.7536 26.9885C44.3664 27.4003 44.6503 28.3526 44.7278 28.8158C44.8568 29.7681 45.1149 30.7203 45.4246 31.6211C45.6311 32.0844 46.3796 31.9042 46.199 31.4152Z" fill="black"/>
<path d="M54.923 27.8121C55.1553 27.4003 55.3876 26.9885 55.6457 26.5768C55.7489 26.3966 55.8522 26.2422 55.9296 26.062C56.0844 25.8047 56.0844 25.573 56.3942 25.6502C56.7555 25.7275 56.6265 26.5768 56.6265 26.8856C56.6265 27.3746 56.6523 27.8636 56.6523 28.3526C56.6523 28.8416 57.4266 28.8416 57.4266 28.3526C57.4266 27.5547 57.4524 26.7569 57.4008 25.9591C57.375 25.4444 57.1943 24.8781 56.6265 24.698C56.1103 24.5436 55.7489 24.8781 55.4908 25.2642C55.052 25.9591 54.6649 26.7054 54.2519 27.4003C53.9938 27.8636 54.6649 28.2496 54.923 27.8121Z" fill="black"/>
<path d="M79.6495 44.6438C79.8044 46.5998 81.9983 47.2432 83.5211 46.291C85.7667 44.9012 86.2571 41.7613 85.9732 39.3936C85.586 36.1507 84.8117 33.1395 85.9215 29.9225C86.9798 26.8598 89.6125 24.3633 92.942 24.1574C93.4324 24.1317 93.4324 23.3596 92.942 23.3853C88.3994 23.6684 85.3021 27.5289 84.6568 31.8012C84.2696 34.3492 84.8375 36.7169 85.173 39.2134C85.3795 40.8605 85.2763 42.4305 84.5278 43.9489C84.1922 44.5924 83.7276 45.2358 83.1082 45.6476C82.1532 46.2395 80.5013 46.0594 80.398 44.6696C80.398 44.1548 79.6237 44.1291 79.6495 44.6438Z" fill="black"/>
<path d="M80.0625 46.0337C80.8627 48.1698 83.6502 47.2175 84.8633 45.9822C86.8507 43.9747 86.4119 40.629 86.2571 38.081C86.2313 37.592 85.4569 37.592 85.4828 38.081C85.586 39.7025 85.7409 41.4525 85.4569 43.074C85.3279 43.8461 85.044 44.5667 84.5278 45.1844C83.9599 45.8792 81.4821 47.6293 80.811 45.8278C80.6304 45.3645 79.8818 45.5704 80.0625 46.0337Z" fill="black"/>
<path d="M92.9678 23.3596C90.0254 24.492 87.0572 26.0877 85.8699 29.1761C84.5019 32.7278 85.4827 36.5883 85.4053 40.2686C85.4053 40.7576 86.1796 40.7576 86.1796 40.2686C86.2571 37.0515 85.4827 33.7572 86.2571 30.5659C87.1088 27.0657 90.0254 25.3156 93.1743 24.106C93.6389 23.9258 93.4324 23.1795 92.9678 23.3596Z" fill="black"/>
<path d="M92.3742 23.7971C89.6641 25.0325 87.1863 27.1944 85.9215 29.9482C85.2505 31.3894 85.3537 32.9851 85.3537 34.5551C85.3537 36.5625 85.4311 38.5957 85.586 40.6032C85.6118 41.0922 86.3861 41.0922 86.3603 40.6032C86.2571 38.9818 86.1796 37.3861 86.1538 35.7647C86.128 34.0661 85.8957 32.0586 86.541 30.4629C87.6508 27.7606 90.1545 25.6759 92.7613 24.4663C93.2259 24.2604 92.8388 23.5912 92.3742 23.7971Z" fill="black"/>
<path d="M47.2314 33.1138C47.9541 34.3749 49.7866 33.9373 49.9673 32.5476C49.9931 32.2902 49.606 32.3159 49.5802 32.5476C49.4511 33.6028 48.1089 33.8087 47.5669 32.9336C47.4379 32.702 47.1023 32.9079 47.2314 33.1138Z" fill="white"/>
<path d="M52.7032 32.11C53.5034 33.4741 55.5424 32.9336 55.5682 31.3637C55.5682 31.1063 55.1811 31.1063 55.1811 31.3637C55.1552 32.5733 53.6582 32.9594 53.0388 31.9299C52.9097 31.6983 52.5742 31.8784 52.7032 32.11Z" fill="white"/>
<path d="M51.1546 33.8087C51.3353 34.5551 51.1804 35.3014 50.7158 35.9191C50.561 36.125 50.8965 36.3052 51.0514 36.125C51.5676 35.4301 51.7224 34.5551 51.5418 33.7058C51.4643 33.4741 51.0772 33.5771 51.1546 33.8087Z" fill="white"/>
<path d="M51.3095 33.7829C51.232 34.7609 51.7741 35.6874 52.6774 36.0992C52.9097 36.2022 53.0904 35.8676 52.8839 35.7647C52.1096 35.4043 51.6192 34.6322 51.6966 33.7829C51.6966 33.5256 51.3095 33.5256 51.3095 33.7829Z" fill="white"/>
<path d="M45.0117 36.0736C47.283 35.8934 48.7284 37.7464 50.2512 39.1105C50.4319 39.2649 50.7158 39.0075 50.5351 38.8274C48.9349 37.3861 47.3862 35.5073 45.0117 35.6618C44.7794 35.6875 44.7794 36.0736 45.0117 36.0736Z" fill="white"/>
<path d="M49.2446 40.6033C52.1612 38.7502 55.6198 38.1325 59.001 38.8789C59.2333 38.9304 59.3366 38.5701 59.1043 38.5186C55.6198 37.7722 52.058 38.3899 49.0639 40.2944C48.8317 40.3974 49.0381 40.732 49.2446 40.6033Z" fill="white"/>
<path d="M56.5748 44.1292C58.9752 44.2836 61.2466 43.5372 63.0791 41.9673C63.2598 41.8129 63.0017 41.5298 62.7952 41.6842C61.0401 43.1769 58.872 43.8976 56.5748 43.7431C56.3425 43.7431 56.3425 44.1292 56.5748 44.1292Z" fill="white"/>
<path d="M55.8779 25.8561C55.3101 26.8084 55.1811 27.9151 55.5166 28.9703C55.594 29.2019 55.9554 29.0989 55.8779 28.8673C55.5682 27.9151 55.6715 26.9113 56.1877 26.062C56.3425 25.8304 56.007 25.6245 55.8779 25.8561Z" fill="white"/>
<path d="M45.6569 28.2496C46.2764 28.6357 46.6636 29.2276 46.8184 29.9225C46.87 30.1541 47.2314 30.0512 47.1798 29.8196C46.9991 29.0217 46.5345 28.3526 45.8376 27.9151C45.6311 27.7864 45.4505 28.1209 45.6569 28.2496Z" fill="white"/>
<path d="M59.3108 32.3675C59.8012 32.9594 60.369 33.4742 61.0143 33.8602C61.2207 33.9889 61.4272 33.6543 61.2207 33.5256C60.6013 33.1396 60.0335 32.6506 59.5947 32.0844C59.414 31.9042 59.1559 32.1873 59.3108 32.3675Z" fill="white"/>
<path d="M75.236 45.0043C74.6939 43.6402 72.087 44.5668 71.2353 45.1072C69.7125 46.111 69.0414 47.9897 69.6092 49.7141C69.6866 49.9457 70.048 49.8428 69.9706 49.6111C69.5318 48.2471 69.8931 46.7801 70.9772 45.7764C71.4418 45.3389 72.0612 45.03 72.6807 44.8756C73.1195 44.7469 74.6165 44.4638 74.8488 45.0815C74.952 45.3389 75.3134 45.2359 75.236 45.0043Z" fill="white"/>
<path d="M69.9189 49.7397C67.9057 48.8904 65.7634 48.8132 63.6728 49.4566C63.4405 49.5338 63.5437 49.8941 63.776 49.8169C65.815 49.1735 67.8541 49.2764 69.8157 50.1C70.048 50.203 70.1512 49.8169 69.9189 49.7397Z" fill="white"/>
<path d="M140.821 156.779C139.763 159.301 139.763 161.18 139.608 166.018C139.427 171.989 138.911 177.934 138.859 183.879C138.808 188.898 138.73 196.49 138.524 206.373C146.783 206.836 155.92 206.939 165.831 206.45C175.278 205.987 184.002 205.035 191.874 203.851C188.157 191.317 185.705 182.181 183.95 175.103C183.021 171.32 181.653 165.658 177.885 159.043C175.82 155.415 173.678 152.686 172.103 150.859C171.69 150.499 162.579 142.855 152.048 146.458C151.532 146.664 143.866 149.444 140.821 156.779Z" fill="#FF5B14"/>
<path d="M156.023 171.783C157.753 174.846 159.482 177.908 161.185 180.971C161.418 181.409 162.089 181.022 161.856 180.585C160.127 177.522 158.398 174.46 156.694 171.397C156.462 170.959 155.791 171.346 156.023 171.783Z" fill="#C64F4F"/>
<path d="M155.817 171.629C159.792 176.57 162.089 182.206 163.328 188.383C164.489 194.225 165.238 200.145 165.676 206.09C165.702 206.579 166.477 206.579 166.451 206.09C165.986 199.99 165.212 193.891 164.025 187.894C162.786 181.692 160.359 176.03 156.385 171.088C156.075 170.676 155.507 171.243 155.817 171.629Z" fill="#C64F4F"/>
<path opacity="0.19" d="M162.037 145.866C162.94 147.668 164.231 150.319 165.676 153.51C169.884 162.827 174.246 172.658 176.568 184.754C177.523 189.644 178.427 196.722 178.04 205.55C180.208 205.447 182.505 205.267 184.905 205.009C187.306 204.752 189.603 204.443 191.771 204.083C191.1 201.818 190.016 198.215 188.803 193.762C185.422 181.306 184.957 177.419 182.066 169.209C179.924 163.11 177.936 158.966 175.071 155.003C172.49 151.425 170.064 149.186 166.993 147.616C165.083 146.638 163.302 146.149 162.037 145.866Z" fill="#3F3F3F"/>
<path opacity="0.11" d="M155.868 171.912C156.875 175.669 157.753 180.147 158.166 185.192C158.888 193.917 157.959 201.355 156.823 206.914C159.792 206.733 162.734 206.553 165.702 206.373C165.392 200.531 164.721 195.615 164.076 191.883C162.45 182.387 160.747 178.861 159.379 176.596C158.088 174.511 156.798 172.941 155.868 171.912Z" fill="#3F3F3F"/>
<path d="M122.806 112.923C121.954 113.49 121.438 114.57 120.431 116.707C119.605 118.457 119.218 119.821 118.599 121.854C116.895 127.619 117.076 126.641 116.482 128.829C115.708 131.737 114.314 136.833 113.54 143.55C112.791 150.061 112.946 155.08 112.972 156.29C113.256 163.933 114.598 169.621 115.501 173.276C117.102 179.839 119.244 185.295 123.503 196.182C124.432 198.524 125.206 200.454 125.748 201.792C125.361 201.844 124.741 201.921 123.993 202.024C120.096 202.487 119.554 202.384 117.979 202.719C115.966 203.156 114.159 203.594 113.462 205.112C113.152 205.807 113.023 206.785 113.411 207.12C113.901 207.531 114.856 206.605 116.508 206.064C117.902 205.627 119.141 205.653 119.992 205.781C119.321 207.094 118.934 208.278 118.702 209.127C118.134 211.083 117.695 212.679 118.418 213.811C118.779 214.377 119.476 214.892 120.044 214.738C120.354 214.66 120.638 214.377 121.412 212.344C122.16 210.311 122.212 209.668 122.831 208.87C123.373 208.201 123.993 207.84 124.406 207.634C124.199 208.278 123.967 209.23 123.864 210.388C123.812 211.083 123.735 211.726 123.864 212.55C123.967 213.296 124.199 214.892 125.387 215.767C125.593 215.922 126.445 216.565 126.961 216.23C127.4 215.973 127.271 215.252 127.452 212.936C127.606 210.98 127.761 210.44 127.89 210.131C128.226 209.23 128.742 208.587 129.129 208.201C129 210.054 129.026 211.598 129.078 212.73C129.181 214.557 129.362 215.381 129.955 215.896C130.291 216.179 130.859 216.462 131.323 216.256C131.788 216.05 131.943 215.407 132.072 214.609C132.64 211.598 132.304 210.723 132.949 209.204C133.207 208.612 133.491 207.892 134.188 207.377C135.659 206.296 137.75 206.939 138.034 207.017C139.273 207.403 139.737 208.072 140.357 207.789C140.873 207.557 141.157 206.811 141.183 206.193C141.209 204.675 139.531 203.516 138.086 202.564C137.363 202.075 136.279 201.432 134.833 200.917C133.569 198.421 131.968 194.792 130.652 190.185C129.775 187.096 129.362 184.729 128.974 182.49C127.606 174.64 128.097 171.629 126.574 163.83C126.213 161.952 125.851 160.459 125.645 159.61C125.748 158.323 125.929 156.315 126.187 153.87C127.039 145.892 127.606 140.899 129.336 135.031C130.704 130.424 132.097 126.641 132.097 126.641C133.853 121.931 134.42 121.288 134.214 119.769C133.491 114.982 125.98 110.813 122.806 112.923Z" fill="white"/>
<path d="M120.818 115.368C116.223 125.946 113.332 137.244 112.713 148.775C112.068 160.536 114.107 172.04 117.927 183.159C120.095 189.516 122.728 195.692 125.412 201.869C125.618 202.333 126.264 201.921 126.083 201.483C121.437 190.777 116.894 179.916 114.726 168.437C112.584 157.113 113.023 145.403 115.501 134.156C116.894 127.851 118.908 121.7 121.489 115.78C121.669 115.317 121.024 114.905 120.818 115.368Z" fill="#161616"/>
<path d="M130.445 130.064C127.193 139.87 125.489 150.139 125.309 160.459C125.309 160.948 126.083 160.948 126.083 160.459C126.264 150.19 127.967 140.024 131.193 130.27C131.348 129.807 130.6 129.601 130.445 130.064Z" fill="#161616"/>
<path d="M122.598 155.775C124.896 158.966 125.825 162.775 126.367 166.584C126.935 170.471 127.193 174.408 127.761 178.294C128.896 186.196 130.755 194.071 134.497 201.149C134.729 201.586 135.401 201.2 135.168 200.763C131.271 193.402 129.438 185.192 128.354 177.008C127.399 169.827 127.683 161.514 123.27 155.389C122.986 155.003 122.315 155.389 122.598 155.775Z" fill="#161616"/>
<path d="M125.309 201.509C122.908 201.638 120.508 201.869 118.159 202.307C116.481 202.641 114.7 203.182 113.539 204.52C112.868 205.318 112.016 207.223 113.487 207.763C114.133 207.995 114.7 207.557 115.242 207.248C116.585 206.476 117.978 205.678 119.579 206.116C120.069 206.245 120.276 205.498 119.785 205.369C118.469 205.009 117.281 205.318 116.094 205.91C115.733 206.09 115.397 206.27 115.062 206.476C114.855 206.579 114.675 206.708 114.468 206.836C114.236 206.425 113.978 206.013 113.745 205.601C113.797 204.958 115.088 204.211 115.552 203.954C116.817 203.285 118.288 203.053 119.682 202.847C121.566 202.564 123.45 202.384 125.334 202.281C125.825 202.255 125.825 201.483 125.309 201.509Z" fill="#161616"/>
<path d="M123.192 203.8C121.153 204.134 119.475 205.524 118.701 207.403C117.875 209.359 117.178 212.267 118.133 214.274C118.856 215.793 120.637 216.333 121.308 214.48C121.721 213.322 121.643 212.061 122.056 210.903C122.573 209.462 123.45 208.226 124.741 207.377C125.154 207.094 124.767 206.425 124.354 206.708C123.14 207.506 122.237 208.587 121.643 209.899C121.334 210.568 121.101 211.263 120.947 211.984C120.818 212.576 120.74 215.561 119.321 214.686C118.52 214.197 118.443 212.627 118.469 211.829C118.52 210.645 118.83 209.281 119.217 208.149C119.863 206.245 121.385 204.88 123.373 204.546C123.889 204.469 123.683 203.722 123.192 203.8Z" fill="#161616"/>
<path d="M125.618 205.704C124.018 206.734 123.45 208.973 123.295 210.774C123.14 212.704 123.682 214.789 125.128 216.153C125.98 216.951 127.296 217.363 127.528 215.87C127.915 213.374 126.909 209.848 129.645 208.355C130.084 208.123 129.696 207.454 129.258 207.686C128.277 208.226 127.657 209.101 127.27 210.157C126.728 211.701 127.038 213.271 126.806 214.866C126.702 215.587 126.496 216.359 125.696 215.613C125.412 215.355 125.154 215.021 124.947 214.686C124.457 213.914 124.173 213.039 124.095 212.138C123.915 210.337 124.379 207.454 126.031 206.373C126.418 206.09 126.031 205.421 125.618 205.704Z" fill="#161616"/>
<path d="M129.283 207.763C128.793 209.616 128.328 211.546 128.638 213.477C128.767 214.403 129.309 216.668 130.496 216.899C131.839 217.157 132.381 214.789 132.51 213.914C132.794 212.01 132.432 209.719 133.929 208.252C134.291 207.892 133.749 207.351 133.387 207.712C131.581 209.487 132.2 212.061 131.658 214.326C131.477 215.149 130.961 216.385 130.109 215.433C129.645 214.944 129.516 213.991 129.412 213.348C129.154 211.546 129.593 209.745 130.058 207.995C130.161 207.506 129.412 207.3 129.283 207.763Z" fill="#161616"/>
<path d="M134.859 201.586C136.381 202.204 137.956 202.873 139.143 204.057C139.685 204.597 140.356 205.421 140.511 206.193C140.898 208.329 139.298 206.965 138.704 206.708C137.078 205.987 133.852 206.502 132.923 208.149C132.69 208.587 133.361 208.973 133.594 208.535C134.084 207.634 135.426 207.403 136.356 207.274C136.923 207.197 137.569 207.145 138.111 207.3C138.73 207.48 139.117 208.02 139.711 208.201C140.563 208.458 141.208 207.866 141.337 207.042C141.569 205.704 140.408 204.211 139.504 203.336C138.24 202.127 136.614 201.458 135.013 200.814C134.6 200.66 134.42 201.406 134.859 201.586Z" fill="#161616"/>
<path opacity="0.13" d="M129.645 121.751C126.677 121.931 124.896 129.498 123.915 133.693C122.805 138.403 121.798 144.888 122.005 154.334C122.185 162.775 123.27 169.209 123.631 171.449C125.257 181.074 127.812 189.155 130.316 195.487C131.142 197.803 131.942 200.119 132.768 202.41C132.303 204.314 131.839 206.27 131.4 208.303C130.832 210.98 130.316 213.605 129.903 216.127C130.393 216.179 131.064 216.153 131.529 215.69C132.123 215.098 132.045 214.146 132.071 213.322C132.097 212.55 132.174 208.818 133.852 207.428C134.884 206.579 136.536 206.579 137.672 206.991C138.833 207.428 139.35 208.278 140.124 208.02C140.718 207.84 141.13 207.12 141.208 206.553C141.466 204.675 137.853 202.744 137.259 202.436C136.097 201.818 135.555 201.741 134.807 200.969C133.878 199.991 133.568 198.832 133.439 198.318C131.297 190.185 130.238 190.7 128.793 181.357C127.709 174.305 128.406 174.717 127.296 169.107C126.522 165.143 125.876 163.522 125.67 160.099C125.438 156.341 125.876 153.407 126.341 150.808C128.277 140.179 131.994 127.31 132.897 124.248C132.071 122.961 130.935 121.674 129.645 121.751Z" fill="#3F3F3F"/>
<path d="M182.324 15.9474C181.524 15.9217 180.904 17.363 180.75 17.749C180.517 18.3152 180.156 19.4219 180.414 20.9918C180.414 20.9918 180.569 22.0728 181.085 28.6099C181.214 30.0769 181.24 32.213 180.853 34.8896C179.82 37.7207 178.84 39.934 178.169 41.3753C175.897 46.2138 174.374 48.144 171.2 54.2694C170.012 56.5599 169.909 56.9202 168.515 59.7513C165.031 66.7774 162.476 71.1784 159.869 75.8882C157.572 80.006 154.345 86.0542 150.551 93.8266C150.37 94.4958 149.467 98.0732 151.558 101.213C153.777 104.533 158.423 106.026 162.914 104.585C163.611 103.607 164.592 102.088 165.495 100.106C166.373 98.1761 166.786 96.6834 167.07 95.7312C167.354 94.7789 168.49 91.5618 170.787 85.0762C171.509 83.0687 172.387 80.6752 174.168 75.9911C176.878 68.8106 178.22 65.2332 179.124 62.9941C181.163 57.8982 182.711 54.3723 185.757 47.5263C187.357 43.9232 189.319 39.5737 191.59 34.6323C192.906 33.8859 194.713 32.7278 196.649 31.0549C199.437 28.6614 200.83 26.6282 203.515 22.7677C205.244 20.2455 206.56 18.0321 206.199 15.8188C206.147 15.5099 206.018 14.6091 205.528 14.4805C204.908 14.3003 204.134 15.5357 203.282 16.6166C202.405 17.7233 201.088 19.1645 199.127 20.6573C199.798 18.8042 200.469 17.363 200.934 16.4107C201.992 14.2488 202.869 12.859 203.411 10.4655C204.005 7.9176 203.463 7.45434 203.308 7.32566C202.611 6.81093 201.424 7.78892 200.727 7.22272C200.108 6.68225 200.65 5.49836 200.159 5.21525C199.669 4.93215 198.585 5.78146 197.81 6.68224C196.468 8.22644 196.159 9.71917 195.668 11.1604C195.204 12.5759 194.352 14.5062 192.752 16.6423C192.364 16.6938 191.848 16.7195 191.616 16.4107C191.358 16.0504 191.719 15.4585 192.055 14.5062C192.132 14.2746 192.08 14.4032 192.622 12.0355C192.829 11.1347 193.216 9.46181 193.526 8.1235C193.965 6.19325 194.171 5.39541 193.758 4.5461C193.681 4.36594 193.345 3.67105 192.855 3.64531C192.287 3.61958 191.848 4.52036 191.513 5.21525C190.145 8.02055 189.448 9.43607 189.267 9.92507C188.364 12.3701 187.151 16.1019 186.97 17.3887C186.944 17.5431 186.893 18.0836 186.634 18.7785C186.505 19.1131 186.428 19.2417 186.35 19.4476C185.705 20.8889 186.247 21.8412 185.576 22.3559C185.499 22.4074 185.112 22.6905 184.802 22.5875C184.466 22.4846 184.311 22.047 184.131 20.5801C183.873 18.5726 184.028 17.9806 183.563 17.1056C183.253 16.7195 182.866 15.9732 182.324 15.9474Z" fill="white"/>
<path d="M181.085 27.8635C181.266 25.9848 180.982 24.1575 180.879 22.2787C180.827 21.3779 180.827 20.4514 180.956 19.5506C181.034 19.0359 181.137 18.5211 181.292 18.0321C181.55 17.2858 181.576 16.6681 182.402 16.6424C183.176 16.6166 183.124 17.0799 183.253 17.7233C183.382 18.2895 183.408 18.8814 183.434 19.4477C183.486 20.2455 183.512 21.0691 183.692 21.8412C183.873 22.639 184.363 23.3082 185.267 23.0251C185.731 22.8706 185.551 22.1243 185.06 22.2787C184.157 22.5361 184.234 19.4991 184.183 18.9844C184.105 18.1608 184.028 17.3115 183.718 16.5394C183.279 15.4585 182.273 14.918 181.421 15.9217C180.311 17.2086 180.079 19.5249 180.079 21.1205C180.079 23.3854 180.518 25.5987 180.311 27.8635C180.285 28.3525 181.06 28.3525 181.085 27.8635Z" fill="#161616"/>
<path d="M185.576 22.7162C186.867 20.2198 187.254 17.3888 188.003 14.7121C188.803 11.8296 189.809 8.9986 191.306 6.42493C191.642 5.85872 191.977 5.06088 192.468 4.62336C193.423 3.74831 193.423 5.4212 193.345 6.14183C193.191 7.7375 192.778 9.35891 192.416 10.9288C192.081 12.3701 191.616 13.7599 191.281 15.2011C191.1 15.999 191.1 16.6939 191.668 17.3115C192.003 17.6719 192.545 17.1314 192.21 16.7711C191.565 16.0762 192.236 14.6864 192.442 13.94C192.674 13.0907 192.907 12.2414 193.087 11.3921C193.449 9.82217 193.81 8.2265 194.042 6.60509C194.171 5.75577 194.352 4.26305 193.604 3.61963C192.958 3.07916 192.313 3.59389 191.874 4.10863C189.99 6.45067 188.829 9.53907 187.899 12.3701C186.841 15.6387 186.506 19.2933 184.905 22.3559C184.673 22.7677 185.344 23.1538 185.576 22.7162Z" fill="#161616"/>
<path d="M191.848 17.3887C192.623 17.4659 192.907 16.8997 193.268 16.282C193.836 15.304 194.352 14.2746 194.842 13.2708C195.797 11.3148 196.469 9.1787 197.63 7.3514C197.888 6.93961 198.198 6.42488 198.611 6.11604C198.946 5.72999 199.385 5.6013 199.953 5.78146C200.03 6.14177 200.082 6.50209 200.082 6.8624C200.108 8.12349 199.695 9.38459 199.256 10.5685C198.378 12.9105 197.398 15.2268 196.443 17.5688C196.262 18.0321 197.011 18.238 197.191 17.7747C197.733 16.4364 203.308 4.70052 199.669 4.62331C198.946 4.59758 198.12 5.49836 197.707 5.98735C196.985 6.83666 196.469 7.81466 196.004 8.81839C195.462 10.028 194.971 11.2376 194.404 12.4215C194.068 13.1421 193.681 13.8885 193.32 14.5834C193.087 15.0466 192.519 16.6423 191.874 16.5908C191.358 16.5651 191.358 17.3372 191.848 17.3887Z" fill="#161616"/>
<path d="M200.985 7.91764C201.269 6.42491 202.895 7.45438 203.102 8.40664C203.283 9.20447 202.973 10.0023 202.715 10.7487C202.327 11.8811 201.889 12.9878 201.424 14.0687C200.521 16.1791 199.462 18.1866 198.275 20.1683C198.017 20.6058 198.688 20.9919 198.946 20.5543C200.056 18.727 201.037 16.8225 201.915 14.8923C202.663 13.2194 203.566 11.3664 203.85 9.53905C204.031 8.3809 203.695 6.88817 202.405 6.47639C201.45 6.16755 200.417 6.75949 200.237 7.73748C200.159 8.20074 200.908 8.40664 200.985 7.91764Z" fill="#161616"/>
<path d="M199.488 20.8632C200.469 19.7565 201.424 18.6499 202.405 17.5432C202.921 16.9512 203.386 16.3078 203.954 15.7931C204.134 15.6387 204.315 15.51 204.47 15.3556C204.909 15.51 205.347 15.6644 205.812 15.8188C205.941 16.0504 205.631 16.7196 205.554 16.9255C204.754 19.3705 203.592 21.6868 202.224 23.8487C199.463 28.1982 195.668 31.8528 191.229 34.5037C190.79 34.761 191.203 35.4302 191.616 35.1728C197.14 31.8785 201.682 27.04 204.547 21.3007C205.244 19.911 205.915 18.444 206.354 16.9512C206.612 16.0762 206.767 14.8923 205.76 14.429C204.78 13.9658 203.747 14.8666 203.128 15.51C201.656 17.0284 200.314 18.7271 198.921 20.3227C198.611 20.6831 199.153 21.2235 199.488 20.8632Z" fill="#161616"/>
<path d="M180.414 27.0657C180.595 29.4334 180.776 31.8527 180.388 34.2205C180.001 36.5625 179.021 38.7244 177.936 40.8348C175.743 45.1071 173.445 49.3279 171.2 53.5745C166.709 62.0676 162.218 70.5349 157.727 79.028C155.146 83.8923 152.565 88.7822 149.984 93.6465C149.751 94.084 150.422 94.4701 150.655 94.0325C159.921 76.5058 169.367 59.0564 178.478 41.4267C179.563 39.3421 180.569 37.2059 181.008 34.9154C181.524 32.3159 181.343 29.6908 181.137 27.0657C181.163 26.5767 180.388 26.5767 180.414 27.0657Z" fill="#161616"/>
<path d="M191.177 34.3235C182.918 51.7215 175.717 69.5313 169.367 87.7014C167.509 92.9774 165.651 98.2534 163.405 103.375C163.199 103.838 163.87 104.224 164.076 103.761C167.922 95.0364 170.735 85.8998 174.039 76.9949C177.42 67.8327 181.085 58.7476 184.983 49.7913C187.202 44.7211 189.474 39.7025 191.848 34.7096C192.055 34.272 191.384 33.886 191.177 34.3235Z" fill="#161616"/>
<path opacity="0.1" d="M202.844 7.60876C201.785 7.45434 200.366 11.7781 199.54 13.94C197.036 20.58 194.92 21.3522 189.551 30.36C187.564 33.68 184.828 38.6729 182.066 45.1843C173.807 62.5308 165.573 79.9031 157.314 97.2496C159.327 99.6946 161.314 102.165 163.328 104.61C164.334 101.754 165.805 97.5584 167.638 92.4883C170.968 83.3518 175.278 71.5901 181.369 57.2805C183.795 51.6185 187.151 43.9747 191.461 34.9926C192.648 34.2462 194.3 33.0881 196.107 31.4924C198.533 29.382 201.734 26.5252 203.928 21.8669C204.625 20.4256 205.502 18.2123 205.967 15.304C205.631 15.1496 205.141 14.9695 204.599 15.0724C203.67 15.2526 203.179 16.1533 202.792 16.771C201.295 19.0616 199.101 20.58 198.817 20.3999C198.662 20.2712 199.101 19.5248 200.288 17.1056C202.715 12.1384 201.708 13.451 202.663 11.7781C203.205 10.8258 203.747 10.0023 203.566 8.94707C203.566 8.48381 203.282 7.68597 202.844 7.60876Z" fill="#3F3F3F"/>
<path opacity="0.13" d="M201.269 25.1612C199.979 25.9848 198.146 27.1944 196.055 28.7901C193.655 30.5916 191.074 32.5476 188.906 35.0183C185.964 38.3641 184.673 41.6841 183.899 43.6144C176.801 61.6815 168.361 81.2929 165.96 86.7491C164.644 89.7345 162.579 94.2385 159.843 99.6432C161.082 101.265 162.347 102.886 163.586 104.507C167.148 93.6722 171.252 82.3224 175.949 70.5607C181.008 57.924 186.247 46.1109 191.513 35.1213C192.932 34.169 194.533 32.9594 196.159 31.3895C198.456 29.2019 200.108 26.9885 201.269 25.1612Z" fill="#3F3F3F"/>
<path d="M132.639 99.6693C131.684 100.313 129.542 101.805 127.348 104.225C125.077 106.721 123.761 109.063 122.677 111.045C121.825 112.563 121.205 113.902 120.767 114.88C121.438 116.167 122.522 118.148 124.019 120.516C126.677 124.711 128.742 126.976 132.304 131.531C133.801 133.436 135.969 136.293 138.55 139.896C138.963 141.826 139.324 143.859 139.634 145.995C140.254 150.371 140.486 154.437 140.486 158.092C141.441 159.121 143.093 160.614 145.519 161.669C149.545 163.445 153.211 162.93 155.121 162.621C159.353 161.978 162.244 160.099 164.232 158.786C167.845 156.419 170.297 153.588 171.923 151.246C171.588 147.231 171.149 143.087 170.607 138.789C170.142 135.134 169.626 131.583 169.058 128.134C169.007 125.432 168.749 121.751 167.871 117.479C167.148 113.902 166.271 109.732 163.664 104.791C160.412 98.6399 156.359 94.908 154.785 93.544C153.391 92.3344 152.126 91.4336 151.197 90.7902C147.429 93.1837 144.177 94.6764 141.957 95.5772C137.827 97.2758 135.892 97.5332 132.639 99.6693Z" fill="white"/>
<path d="M121.179 114.982C121.979 111.945 124.199 109.114 126.109 106.643C128.122 104.07 130.393 101.728 133.103 99.849C133.516 99.5659 133.129 98.8967 132.716 99.1799C129.929 101.11 127.58 103.504 125.515 106.154C123.528 108.702 121.282 111.585 120.456 114.751C120.327 115.265 121.076 115.445 121.179 114.982Z" fill="#161616"/>
<path d="M120.611 115.24C125.928 124.505 132.226 133.204 139.375 141.157C139.711 141.517 140.253 140.976 139.917 140.616C132.819 132.715 126.573 124.067 121.282 114.854C121.024 114.416 120.353 114.802 120.611 115.24Z" fill="#161616"/>
<path d="M142.447 95.937C145.338 93.9038 148.512 92.3854 151.894 91.4074C152.384 91.2787 152.177 90.5323 151.687 90.661C148.228 91.6648 145.002 93.209 142.06 95.2679C141.647 95.551 142.034 96.2201 142.447 95.937Z" fill="#161616"/>
<path d="M151.248 91.6134C163.586 100.184 168.877 115.214 168.283 129.755C168.257 130.244 169.032 130.244 169.058 129.755C169.677 114.905 164.205 99.6689 151.635 90.9442C151.248 90.6611 150.861 91.3303 151.248 91.6134Z" fill="#161616"/>
<path d="M137.698 139.638C139.04 142.392 139.195 145.815 139.479 148.8C139.788 151.837 139.892 154.9 139.892 157.963C139.892 158.452 140.666 158.452 140.666 157.963C140.692 154.565 140.537 151.168 140.15 147.797C139.84 144.94 139.633 141.851 138.369 139.226C138.136 138.789 137.491 139.175 137.698 139.638Z" fill="#161616"/>
<path d="M140.382 158.117C144.254 162.853 150.861 164.191 156.617 162.724C159.817 161.9 162.786 160.33 165.444 158.374C168.103 156.418 170.632 154.154 172.129 151.168C172.361 150.731 171.69 150.345 171.458 150.782C170.013 153.639 167.586 155.826 165.031 157.705C162.553 159.533 159.792 161.025 156.798 161.875C151.171 163.444 144.692 162.235 140.898 157.577C140.614 157.19 140.072 157.731 140.382 158.117Z" fill="#161616"/>
<path d="M168.567 128.597C169.832 136.138 171.071 143.679 171.51 151.297C171.535 151.786 172.31 151.786 172.284 151.297C171.819 143.601 170.58 135.983 169.316 128.391C169.238 127.902 168.49 128.108 168.567 128.597Z" fill="#161616"/>
<path opacity="0.13" d="M143.428 94.9076C146.293 98.2791 150.216 103.529 153.494 110.633C158.295 121.03 159.25 130.012 159.972 137.656C160.54 143.473 160.85 151.58 159.714 161.257C161.908 160.305 165.005 158.657 167.999 155.801C169.651 154.205 170.89 152.609 171.819 151.219C170.968 144.039 170.116 136.833 169.264 129.652C169.419 123.733 168.49 118.946 167.612 115.703C164.902 105.666 159.688 99.2056 157.933 97.1724C155.533 94.3671 153.184 92.3082 151.455 90.9442C148.77 92.2825 146.112 93.595 143.428 94.9076Z" fill="#3F3F3F"/>
<path opacity="0.14" d="M162.657 103.915C162.192 104.044 163.276 108.239 164.308 114.442C164.308 114.442 165.883 123.861 166.218 132.972C166.451 138.995 166.141 147.796 163.431 158.735C164.67 158.117 166.193 157.216 167.767 155.955C169.677 154.411 171.045 152.789 171.974 151.503C171.639 141.131 170.761 135.752 169.935 132.715C169.78 132.123 169.367 130.733 169.032 128.777C168.412 125.122 168.722 123.553 168.387 120.516C168.128 118.096 167.638 116.501 166.735 113.541C165.367 109.089 163.173 103.761 162.657 103.915Z" fill="#3F3F3F"/>
<path d="M132.278 57.3321C130.574 58.2843 128.406 59.7256 126.315 61.9132C121.979 66.5201 120.585 71.6674 120.095 74.2153C119.708 74.1639 118.65 74.0866 117.798 74.7558C116.533 75.7338 116.507 77.664 116.998 78.7965C117.178 79.2082 117.436 79.5428 117.979 80.212C118.624 81.0098 119.037 81.4988 119.708 81.7819C119.992 81.9106 120.637 82.0908 121.566 81.8849C121.85 82.7342 122.315 83.9181 123.012 85.2821C123.915 87.0322 125.283 89.6316 128.019 91.8964C128.819 92.5656 130.058 93.4406 131.736 94.2385C132.355 95.0363 133.491 96.7092 133.62 98.974C133.878 102.963 130.961 106.283 128.2 107.75C123.399 110.298 118.185 107.75 116.275 106.798C115.243 106.283 110.055 103.607 107.887 97.7387C105.254 90.6611 108.687 83.5835 110.726 79.3627C112.791 75.1161 113.746 75.3992 115.32 71.2556C117.411 65.7737 116.301 63.8434 118.701 59.6484C119.63 58.0012 121.515 54.7069 125.464 53.1627C128.845 51.8501 131.968 52.5193 133.31 52.9053C134.42 52.2362 136.381 51.2839 138.859 51.2839C144.744 51.2839 148.513 56.8431 149.416 58.1814C152.1 62.1191 150.681 63.3287 153.081 68.8621C156.101 75.8367 159.043 75.425 161.753 81.9621C163.07 85.1534 165.264 90.4294 162.837 95.4738C160.334 100.673 154.63 102.191 153.907 102.371C152.591 102.706 149.055 103.581 145.518 101.702C145.183 101.522 140.744 99.1027 140.382 94.9591C140.253 93.4406 140.692 92.0251 140.795 91.7163C141.337 90.0434 142.266 88.9624 142.55 88.6021C143.66 87.2381 145.002 84.7159 145.931 79.6972C146.37 79.6715 147.093 79.5686 147.816 79.1568C149.338 78.2817 150.061 76.5059 149.984 74.9617C149.958 74.6014 149.855 72.5424 148.358 71.8475C147.738 71.5644 147.093 71.6417 146.732 71.7189C141.931 66.8804 137.104 62.1191 132.278 57.3321Z" fill="#2E65CE"/>
<path d="M132.277 57.3064C129.412 58.9793 127.425 60.8323 126.16 62.1964C121.953 66.7518 120.611 71.513 120.327 72.6197C120.146 73.3146 120.017 73.8808 119.966 74.2926C119.682 74.1897 119.037 74.0095 118.391 74.2926C117.41 74.7301 117.204 75.914 117.101 76.506C116.843 77.87 117.359 78.9509 117.565 79.3627C117.849 79.9547 118.314 80.9069 119.424 81.3959C120.327 81.8077 121.179 81.6533 121.54 81.5761C121.902 82.5026 122.418 83.7894 123.218 85.2564C124.431 87.5727 125.567 89.7089 127.761 91.6134C128.612 92.3597 130.006 93.3892 132.019 94.187C132.432 94.8305 133 95.8342 133.31 97.1468C133.568 98.1762 133.62 99.0513 133.594 99.7204C134.265 100.055 135.53 100.57 137.104 100.544C140.124 100.493 142.111 98.6138 142.576 98.1505C142.085 96.6835 141.647 94.8819 141.466 92.7973C141.389 91.845 141.363 90.9442 141.363 90.1207C142.163 89.2714 143.144 88.0617 143.944 86.4403C145.363 83.635 145.596 81.0356 145.622 79.5171C145.983 79.5686 146.706 79.6458 147.48 79.337C148.564 78.8995 149.054 77.9472 149.338 77.4067C149.416 77.2781 150.5 75.0647 149.519 72.8771C149.287 72.3881 148.9 71.4873 148.125 71.4101C147.557 71.3586 147.093 71.7961 146.912 71.9763C145.854 70.7152 143.866 68.3732 141.079 65.1561C138.678 62.3508 137.156 60.6007 134.6 58.7991C133.671 58.13 132.845 57.641 132.277 57.3064Z" fill="white"/>
<path d="M128.716 84.6129C128.457 85.2048 129.671 86.26 130.238 86.6976C131.426 87.5726 132.69 87.7013 133.155 87.727C133.697 87.7785 135.478 87.9072 137.104 86.749C137.491 86.4659 138.575 85.7196 138.988 84.3298C139.272 83.3261 139.195 81.9363 138.653 81.7047C138.24 81.5502 137.853 82.065 136.975 82.6827C135.426 83.7379 133.826 83.9952 132.458 84.2011C130.135 84.5614 128.974 84.0982 128.716 84.6129Z" fill="black"/>
<path d="M120.534 78.6678C121.463 82.5283 122.96 86.3116 125.438 89.4514C127.632 92.2567 130.884 94.9591 134.678 94.5988C138.188 94.2642 141.053 91.5361 142.911 88.7565C145.105 85.5137 146.164 81.6275 146.06 77.7155C146.034 77.2265 145.26 77.2265 145.286 77.7155C145.389 81.2929 144.46 84.7931 142.576 87.83C140.795 90.6868 137.853 93.698 134.265 93.8524C130.471 94.0069 127.348 90.9184 125.334 88.0359C123.321 85.1534 122.082 81.8334 121.256 78.4361C121.153 77.9729 120.405 78.1788 120.534 78.6678Z" fill="#161616"/>
<path d="M131.503 94.2385C132.587 95.8856 133.129 97.6872 133.129 99.6689C133.129 100.158 133.904 100.158 133.904 99.6689C133.904 97.5842 133.31 95.6025 132.174 93.8524C131.916 93.4149 131.245 93.801 131.503 94.2385Z" fill="#161616"/>
<path d="M133.491 99.9777C136.639 101.779 140.718 100.904 142.86 98.0217C143.17 97.6357 142.498 97.2496 142.189 97.6357C140.279 100.184 136.614 100.904 133.878 99.3085C133.439 99.0769 133.052 99.7461 133.491 99.9777Z" fill="#161616"/>
<path d="M140.924 90.7897C140.95 93.1318 141.311 95.4481 142.06 97.6872C142.215 98.1505 142.963 97.9446 142.808 97.4813C142.111 95.2937 141.724 93.0803 141.698 90.7897C141.698 90.275 140.924 90.275 140.924 90.7897Z" fill="#161616"/>
<path d="M121.308 81.1127C120.972 81.473 120.146 81.3444 119.759 81.1385C119.45 80.984 119.166 80.7524 118.933 80.5208C118.417 80.0318 118.004 79.4398 117.746 78.7964C117.23 77.5868 116.998 74.1123 119.295 74.73C119.785 74.8587 119.992 74.1123 119.501 73.9837C116.662 73.2373 116.223 76.9949 116.946 78.8736C117.514 80.3921 120.121 83.532 121.876 81.6532C122.185 81.2929 121.643 80.7524 121.308 81.1127Z" fill="#161616"/>
<path d="M147.248 72.1049C147.557 71.0755 148.899 73.0572 149.054 73.4175C149.364 74.2411 149.467 75.1419 149.338 76.0169C149.132 77.767 147.738 79.4399 145.802 78.9509C145.312 78.8222 145.105 79.5686 145.596 79.6973C148.719 80.4951 150.397 77.2523 150.113 74.6014C149.984 73.4433 149.519 71.9505 148.409 71.3328C147.686 70.9468 146.757 71.0497 146.499 71.8733C146.344 72.388 147.093 72.5682 147.248 72.1049Z" fill="#161616"/>
<path d="M124.07 66.6488C124.921 65.0274 126.418 63.9722 128.225 63.7148C128.716 63.6376 128.509 62.8912 128.019 62.9684C126.031 63.2515 124.328 64.4869 123.399 66.2627C123.166 66.7002 123.837 67.0863 124.07 66.6488Z" fill="#161616"/>
<path d="M135.994 62.6853C138.162 62.1706 140.33 63.2515 141.311 65.2075C141.543 65.645 142.189 65.259 141.982 64.8215C140.847 62.5309 138.266 61.347 135.788 61.939C135.297 62.0676 135.504 62.814 135.994 62.6853Z" fill="#161616"/>
<path d="M130.367 65.8509C130.858 68.579 130.987 71.3843 130.703 74.1638C130.6 75.0131 130.187 76.2227 130.574 77.0721C130.987 77.9986 132.097 78.7964 132.794 79.517C133.129 79.8773 133.697 79.3369 133.336 78.9766C132.871 78.4876 132.407 78.0243 131.942 77.5353C131.219 76.7889 131.142 76.5573 131.297 75.4764C131.426 74.4984 131.555 73.4947 131.606 72.4909C131.71 70.2004 131.529 67.9098 131.116 65.6707C131.039 65.156 130.29 65.3619 130.367 65.8509Z" fill="#161616"/>
<path d="M127.115 72.4653C126.728 71.8476 126.547 71.1784 126.599 70.4578C126.599 70.3034 126.702 69.6342 126.831 69.6085C126.909 69.6085 127.038 70.5093 127.064 70.6122C127.115 70.9468 127.141 71.3071 127.141 71.6417C127.141 71.7446 127.115 72.5939 127.115 72.0792C127.09 71.3329 127.141 70.5865 127.167 69.8401C126.909 69.8659 126.651 69.9173 126.418 69.9431C126.547 70.7409 126.625 71.5388 126.625 72.3623C126.883 72.3623 127.141 72.3623 127.399 72.3623C127.399 72.2594 127.399 72.1564 127.399 72.0535C127.399 71.5645 126.625 71.5645 126.625 72.0535C126.625 72.1564 126.625 72.2594 126.625 72.3623C126.625 72.8513 127.399 72.8513 127.399 72.3623C127.399 71.4873 127.322 70.6122 127.167 69.7372C127.09 69.2997 126.418 69.4284 126.418 69.8401C126.393 70.6637 126.289 71.5645 126.393 72.3881C126.444 72.7741 126.625 73.1344 127.064 73.2116C128.354 73.469 127.967 70.9468 127.864 70.3291C127.786 69.8401 127.709 69.0938 127.244 68.8107C126.857 68.579 126.444 68.8107 126.212 69.171C125.567 70.2519 125.928 71.8476 126.522 72.8256C126.702 73.2631 127.373 72.8771 127.115 72.4653Z" fill="#161616"/>
<path d="M139.04 71.1011C138.653 70.4835 138.472 69.8143 138.524 69.0937C138.524 68.9393 138.627 68.2701 138.756 68.2444C138.833 68.2444 138.962 69.1451 138.988 69.2481C139.04 69.5827 139.066 69.943 139.066 70.2776C139.066 70.3805 139.04 71.2298 139.04 70.7151C139.014 69.9687 139.066 69.2224 139.091 68.476C138.833 68.5017 138.575 68.5532 138.343 68.579C138.472 69.3768 138.549 70.1746 138.549 70.9982C138.808 70.9982 139.066 70.9982 139.324 70.9982C139.324 70.8952 139.324 70.7923 139.324 70.6893C139.324 70.2003 138.549 70.2003 138.549 70.6893C138.549 70.7923 138.549 70.8952 138.549 70.9982C138.549 71.4872 139.324 71.4872 139.324 70.9982C139.324 70.1231 139.246 69.2481 139.091 68.3731C139.014 67.9355 138.343 68.0642 138.343 68.476C138.317 69.2996 138.214 70.2004 138.317 71.0239C138.369 71.41 138.549 71.7703 138.988 71.8475C140.279 72.1049 139.892 69.5827 139.788 68.965C139.711 68.476 139.633 67.7296 139.169 67.4465C138.782 67.2149 138.369 67.4465 138.136 67.8069C137.491 68.8878 137.853 70.4835 138.446 71.4614C138.627 71.9247 139.298 71.5387 139.04 71.1011Z" fill="#161616"/>
<path d="M123.295 74.833C123.786 74.833 123.786 74.0609 123.295 74.0609C122.805 74.0609 122.805 74.833 123.295 74.833Z" fill="#161616"/>
<path d="M126.341 75.3992C126.367 75.3992 126.393 75.3992 126.444 75.3992C126.651 75.3992 126.831 75.219 126.831 75.0131C126.831 74.8072 126.651 74.6271 126.444 74.6271C126.418 74.6271 126.393 74.6271 126.341 74.6271C126.135 74.6271 125.954 74.8072 125.954 75.0131C125.954 75.219 126.109 75.3992 126.341 75.3992Z" fill="#161616"/>
<path d="M124.534 77.767C125.025 77.767 125.025 76.9949 124.534 76.9949C124.044 76.9949 124.018 77.767 124.534 77.767Z" fill="#161616"/>
<path d="M139.195 74.447C139.22 74.447 139.246 74.447 139.298 74.447C139.504 74.447 139.685 74.2668 139.685 74.0609C139.685 73.855 139.504 73.6749 139.298 73.6749C139.272 73.6749 139.246 73.6749 139.195 73.6749C138.988 73.6749 138.808 73.855 138.808 74.0609C138.808 74.2668 138.962 74.447 139.195 74.447Z" fill="#161616"/>
<path d="M142.034 72.5424C142.524 72.5424 142.524 71.7703 142.034 71.7703C141.543 71.7703 141.543 72.5424 142.034 72.5424Z" fill="#161616"/>
<path d="M141.647 74.6271C141.673 74.6271 141.698 74.6271 141.75 74.6271C141.956 74.6271 142.137 74.4469 142.137 74.241C142.137 74.0351 141.956 73.855 141.75 73.855C141.724 73.855 141.698 73.855 141.647 73.855C141.44 73.855 141.26 74.0351 141.26 74.241C141.285 74.4469 141.44 74.6271 141.647 74.6271Z" fill="#161616"/>
<path d="M129.361 85.2049C128.948 84.6129 128.277 83.7636 128.561 82.9915C128.896 82.1165 129.954 82.2452 130.651 82.3481C131.503 82.4768 132.2 82.6312 133.026 82.3738C133.697 82.1679 134.291 81.7304 134.91 81.3958C136.381 80.5723 138.111 80.4951 138.575 82.4253C139.892 87.7013 130.548 89.1941 129.103 84.5614C128.948 84.0982 128.199 84.2783 128.354 84.7673C130.135 90.4551 141.182 88.3447 139.246 82.0393C138.911 80.9841 138.111 80.0833 136.975 79.9546C135.117 79.7744 133.904 81.6275 132.123 81.7561C130.806 81.8591 129.206 80.8554 128.148 82.0907C127.193 83.1974 127.967 84.6129 128.664 85.5909C128.974 86.0027 129.645 85.6167 129.361 85.2049Z" fill="#161616"/>
<path d="M127.864 83.7379C128.432 85.3079 131.271 84.8189 132.51 84.6387C134.884 84.2784 137.052 83.2489 138.885 81.7305C139.272 81.4216 138.73 80.8554 138.343 81.19C137.001 82.3224 135.452 83.146 133.749 83.6092C133 83.8151 129.051 84.6902 128.638 83.5578C128.432 83.0688 127.683 83.2747 127.864 83.7379Z" fill="#161616"/>
<path d="M132.458 95.0363C135.478 95.8084 139.504 93.9039 141.208 91.4074C141.492 90.9956 140.821 90.6095 140.537 91.0213C139.04 93.209 135.297 94.959 132.665 94.2899C132.174 94.1612 131.968 94.9076 132.458 95.0363Z" fill="#161616"/>
<path d="M132.742 95.268C135.426 96.9409 139.84 94.5731 141.13 92.0251C141.363 91.5876 140.692 91.2015 140.459 91.6391C139.375 93.801 135.426 96.0401 133.129 94.6245C132.69 94.3414 132.303 95.0106 132.742 95.268Z" fill="#161616"/>
<path opacity="0.2" d="M143.453 67.987C143.634 68.9135 143.866 70.3805 144.021 72.1563C144.383 76.8919 145.002 84.8188 140.201 90.0948C139.169 91.2272 136.975 93.2347 132.923 94.3671C134.213 94.3157 135.788 94.1612 137.491 93.7237C138.343 93.5178 139.117 93.2604 139.814 92.9773C139.917 95.2679 139.995 97.5585 140.098 99.849C140.976 99.2828 141.827 98.7424 142.705 98.1762C141.518 95.551 141.518 93.5178 141.673 92.231C141.905 90.4294 142.576 88.9624 143.247 87.4954C143.841 86.2086 144.46 85.1791 144.95 84.4585C145.002 84.999 145.131 85.5652 145.492 86.1056C147.067 88.4477 151.997 88.6793 155.094 86.6718C157.959 84.8188 159.353 81.0612 158.63 77.2007C159.121 77.6125 159.637 78.1015 160.127 78.6935C160.514 79.1567 161.521 80.495 162.915 85.2049C163.353 86.6718 163.56 87.4182 163.689 88.1646C163.844 89.194 164.128 91.15 163.586 93.3634C162.657 97.1724 159.895 99.36 159.069 99.9777C158.475 100.415 156.669 101.728 153.958 102.346C152.668 102.629 148.796 103.555 145.157 101.445C143.789 100.647 143.04 100.055 142.627 99.3343C142.189 98.5365 142.137 97.7901 142.085 97.2239C141.853 93.698 141.75 91.9221 141.982 90.7125C142.679 87.2123 144.254 86.852 145.131 82.8628C145.441 81.4216 145.518 80.2119 145.544 79.4398C145.88 79.4913 146.396 79.5428 147.015 79.3884C148.306 79.0538 148.951 77.9986 149.183 77.6125C150.113 76.1455 150.526 73.5204 149.08 72.3108C148.874 72.1306 148.151 71.5901 146.757 71.6931C145.699 70.4577 144.589 69.2224 143.453 67.987Z" fill="#1447A8"/>
<path opacity="0.13" d="M131.219 76.3257C132.536 76.7118 133.878 77.1236 135.194 77.5096C134.858 77.8185 134.523 78.1016 134.162 78.4104C133.826 78.6935 133.516 78.9251 133.181 79.1825C132.768 78.8737 132.174 78.3332 131.71 77.5096C131.451 77.0721 131.297 76.6603 131.219 76.3257Z" fill="#3F3F3F"/>
<path opacity="0.16" d="M110.519 79.5428C107.706 89.4514 109.796 97.4555 114.004 99.2056C117.307 100.57 123.27 98.6394 124.379 95.2679C124.534 94.8304 124.689 94.0583 124.095 91.6905C123.579 89.6059 122.521 86.466 120.146 82.8886C119.733 82.6312 119.191 82.2194 118.675 81.6017C117.772 80.4951 117.514 79.3112 117.436 78.745C118.185 79.5171 119.269 80.4951 119.966 80.1862C120.637 79.8774 121.05 78.9509 120.818 78.0244C121.05 79.2082 121.411 80.8297 122.082 82.7084C122.96 85.2049 123.837 87.6241 125.876 89.9147C126.806 90.9699 128.638 92.6943 131.735 93.9296C132.252 94.573 133.207 95.9628 133.516 97.996C133.568 98.3049 133.749 99.7204 133.284 101.496C133.181 101.908 132.561 104.147 130.522 106.077C128.148 108.342 125.309 108.754 124.379 108.883C117.385 109.809 111.964 103.71 111.009 102.654C110.054 101.573 108.48 99.7718 107.577 96.9923C106.131 92.5656 107.241 88.5764 108.041 85.6681C108.79 82.9401 109.796 80.8811 110.519 79.5428Z" fill="#3F3F3F"/>
</svg>
