<svg width="375" height="343" viewBox="0 0 375 343" fill="none" xmlns="http://www.w3.org/2000/svg">
<path d="M-44.273 283.17C-22.4255 273.425 2.37701 274.682 25.2934 279.523C49.53 284.647 72.855 293.575 97.3118 297.724C110.86 300.019 124.692 300.836 138.335 298.699C138.932 298.604 138.681 297.693 138.083 297.787C112.747 301.717 87.4096 295.429 63.173 288.577C39.9737 282.007 16.4915 274.714 -7.90235 274.902C-20.5394 274.996 -33.1449 277.197 -44.7446 282.352C-45.3104 282.604 -44.8389 283.421 -44.273 283.17Z" fill="#E8E8E8"/>
<path d="M78.0734 291.28C107.685 291.877 136.355 283.673 165.306 278.8C173.763 277.385 182.282 276.254 190.863 275.688C191.461 275.656 191.461 274.713 190.863 274.745C161.22 276.694 132.645 285.559 103.222 289.017C94.8913 289.991 86.4981 290.525 78.1049 290.368C77.4447 290.337 77.4447 291.28 78.0734 291.28Z" fill="#E8E8E8"/>
<path d="M216.483 280.718C227.014 278.454 237.922 278.077 248.579 279.712C258.386 281.221 267.786 284.458 277.059 287.916C286.207 291.311 295.292 294.926 304.785 297.347C314.593 299.83 324.558 300.459 334.68 300.459C346.625 300.459 358.665 299.988 370.391 302.628C370.988 302.754 371.239 301.842 370.642 301.716C349.926 297.064 328.456 301.779 307.74 297.064C288.407 292.663 270.74 282.761 251.188 279.209C239.619 277.103 227.737 277.354 216.263 279.806C215.634 279.932 215.886 280.843 216.483 280.718Z" fill="#E8E8E8"/>
<path d="M44.7833 159.849C42.0799 159.031 36.7673 156.799 38.7477 153.027C40.1623 150.324 44.3746 150.104 46.9838 150.198C55.7857 150.45 64.5876 151.204 73.3895 150.481C81.657 149.789 89.5472 147.432 97.5947 145.546C105.768 143.597 114.413 142.182 122.649 144.571C126.264 145.609 129.627 147.337 133.179 148.532C134.877 149.098 136.637 149.538 138.429 149.727C140.567 149.947 142.704 149.632 144.811 149.538C146.98 149.444 149.212 149.506 151.066 150.795C152.764 151.958 154.178 154.159 153.078 156.202C151.506 159.157 146.917 158.34 144.276 157.774C136.449 156.139 128.559 155.636 120.605 156.705C116.393 157.271 112.275 158.308 108.251 159.597C103.913 160.98 99.7008 162.206 95.0798 161.578C90.7732 160.98 86.6552 159.597 82.2857 159.44C77.9161 159.251 73.5781 159.817 69.2714 160.383C60.9096 161.515 51.982 162.961 44.1546 158.906C43.6202 158.623 43.1487 159.44 43.6831 159.723C51.0075 163.527 59.275 162.646 67.1967 161.609C71.3462 161.043 75.5271 160.446 79.7394 160.352C84.3604 160.257 88.667 161.326 93.1623 162.206C97.7519 163.086 101.901 162.615 106.365 161.232C110.798 159.849 115.167 158.497 119.757 157.805C124.503 157.082 129.313 156.894 134.091 157.24C138.335 157.522 142.39 158.654 146.571 159.126C149.054 159.409 152.229 159.314 153.77 156.988C155.53 154.316 153.644 151.204 151.223 149.727C147.545 147.495 142.987 149.066 138.995 148.815C134.594 148.532 130.539 146.489 126.484 144.917C118.059 141.648 109.446 142.056 100.738 143.911C91.5277 145.86 82.5686 148.846 73.138 149.601C67.6997 150.041 62.1985 149.947 56.7602 149.727C53.931 149.601 51.0704 149.475 48.2412 149.349C46.4808 149.286 44.7519 149.255 43.0229 149.601C40.3509 150.135 37.3017 151.707 37.4903 154.882C37.7103 158.371 41.7341 159.974 44.5632 160.823C45.0976 160.949 45.3491 160.037 44.7833 159.849Z" fill="#E8E8E8"/>
<path d="M276.776 43.8837C274.073 43.5065 269.64 42.532 268.854 39.4513C267.723 35.1761 273.821 33.8244 276.776 33.29C285.421 31.8126 294.286 33.1643 302.993 33.1643C320.251 33.1328 337.258 29.8636 354.422 28.6376C363.003 28.0089 371.648 27.9146 380.199 29.0148C382.148 29.2663 384.191 29.4549 386.077 30.0207C386.863 30.2408 387.743 30.618 388.34 31.1838C389.786 32.5984 388.372 33.8873 387.051 34.5789C383.656 36.3707 379.79 37.0937 375.986 37.2509C368.379 37.5967 360.803 36.0249 353.196 36.3078C349.643 36.4336 346.154 37.0308 342.79 38.2568C338.861 39.7028 335.215 41.7461 331.254 43.0979C326.664 44.6696 321.823 45.4555 316.951 45.4555C312.015 45.4555 307.143 44.7011 302.27 44.1352C292.4 43.0035 282.497 43.035 272.658 44.3553C272.061 44.4496 272.061 45.3926 272.658 45.2983C282.277 44.0095 292.022 43.9152 301.673 45.0154C306.451 45.5498 311.229 46.3043 316.07 46.3986C320.534 46.4929 325.029 45.927 329.336 44.7011C333.737 43.4436 337.761 41.2746 342.005 39.5771C346.123 37.9425 350.366 37.2194 354.767 37.2194C362.878 37.1566 371.019 38.9798 379.13 37.911C381.11 37.6595 383.028 37.2194 384.914 36.5279C386.36 35.9935 388.309 35.3333 389.346 34.1073C391.295 31.7497 388.466 29.675 386.36 29.0777C382.21 27.8517 377.527 27.6317 373.22 27.3802C368.536 27.0973 363.852 27.1287 359.168 27.3487C340.213 28.2604 321.477 32.2212 302.459 32.1583C297.052 32.1583 291.645 31.6554 286.238 31.6239C281.649 31.5925 276.399 31.6868 272.092 33.4786C269.389 34.6103 266.748 37.2509 268.257 40.363C269.672 43.2865 273.664 44.2924 276.556 44.7011C277.122 44.8897 277.373 43.978 276.776 43.8837Z" fill="#E8E8E8"/>
<path d="M-27.2351 86.7929C-1.01799 75.4133 27.7139 86.0385 51.8877 97.4495C64.2104 103.265 76.3444 109.489 89.2014 114.079C101.807 118.574 114.916 121.686 128.213 123.478C154.901 127.093 182.219 125.49 208.467 119.611C235.973 113.45 262.033 102.259 289.319 95.249C317.705 87.956 347.38 86.3843 376.332 91.0681C379.853 91.634 383.342 92.2941 386.831 93.0486C387.429 93.1743 387.68 92.2627 387.083 92.1369C358.98 86.1642 329.776 85.8813 301.61 91.4768C273.444 97.0723 246.944 108.515 219.312 115.965C192.498 123.195 164.489 126.119 136.795 123.509C123.026 122.221 109.383 119.549 96.1801 115.399C82.5372 111.124 69.743 104.9 56.8859 98.7384C33.6552 87.5788 7.43812 76.2621 -18.8418 82.8949C-21.8911 83.6494 -24.8145 84.6867 -27.7066 85.9442C-28.241 86.2271 -27.7695 87.0444 -27.2351 86.7929Z" fill="#E8E8E8"/>
<path d="M80.3367 75.5391C111.049 92.6714 147.608 93.9602 181.684 89.182C220.256 83.7752 257.412 71.0438 296.046 66.077C317.548 63.3107 339.49 62.9649 360.772 67.6802C361.369 67.806 361.62 66.8943 361.023 66.7686C323.395 58.4697 284.792 65.7941 247.95 74.376C211.642 82.8321 174.926 92.7028 137.298 90.2823C117.65 89.0249 98.0977 84.341 80.8083 74.7218C80.3053 74.4074 79.8338 75.2247 80.3367 75.5391Z" fill="#E8E8E8"/>
<path d="M-11.3602 16.8493C15.0455 10.5622 43.2116 13.0456 68.1084 23.8908C80.3368 29.2034 91.8106 36.1192 103.819 41.8718C115.922 47.6559 128.559 51.6482 141.887 53.44C157.133 55.4833 172.568 55.1376 187.846 54.1316C188.443 54.1002 188.443 53.1571 187.846 53.1886C174.046 54.1002 160.12 54.4774 146.351 53.0314C132.394 51.5539 119.065 47.9074 106.334 42.029C94.2312 36.4021 82.7887 29.4863 70.6232 24.0166C58.6778 18.5468 46.0093 14.9317 32.9637 13.3914C18.0947 11.5996 2.94289 12.4798 -11.6117 15.9377C-12.209 16.0634 -11.9575 16.975 -11.3602 16.8493Z" fill="#E8E8E8"/>
<path d="M256.469 207.379C253.703 206.813 249.176 205.399 248.956 201.972C248.83 199.866 250.591 198.326 252.445 197.76C254.677 197.037 257.035 197.697 259.204 198.326C263.165 199.489 267.157 200.432 271.306 200.589C275.173 200.746 279.008 200.18 282.749 199.174C286.773 198.106 290.702 196.66 294.694 195.528C298.907 194.333 303.213 193.705 307.614 193.642C316.008 193.516 324.307 195.025 332.668 195.371C336.849 195.528 340.967 195.308 345.085 194.679C349.549 193.988 354.107 192.95 358.665 193.485C361.935 193.862 367.184 196.062 366.115 200.275C365.172 203.953 359.954 206.027 356.748 207.065C340.653 212.283 324.055 203.607 307.74 205.902C298.341 207.222 289.476 211.183 279.983 211.937C275.645 212.283 271.181 212 267.063 210.46C263.29 209.014 259.895 205.87 255.589 206.625C254.992 206.719 255.243 207.63 255.84 207.536C258.418 207.096 260.681 208.322 262.85 209.517C264.611 210.46 266.371 211.34 268.289 211.906C272.218 213.1 276.43 213.257 280.517 212.88C289.508 212.031 297.964 208.479 306.86 207.033C316.668 205.461 326.318 207.725 336 209.014C343.891 210.051 352.347 210.302 359.766 207.002C362.595 205.744 366.367 203.732 367.09 200.4C367.75 197.414 365.455 195.025 362.972 193.799C359.294 192.007 354.862 192.353 350.964 192.887C346.217 193.516 341.596 194.522 336.786 194.585C327.419 194.742 318.177 192.824 308.84 192.793C304.376 192.793 299.944 193.296 295.606 194.428C291.299 195.559 287.118 197.131 282.843 198.294C277.562 199.709 272.25 200.149 266.843 199.3C264.139 198.86 261.593 198.106 258.984 197.351C257.035 196.785 254.929 196.314 252.885 196.754C249.836 197.414 247.07 200.306 248.422 203.544C249.648 206.499 253.388 207.788 256.28 208.385C256.783 208.416 257.035 207.505 256.469 207.379Z" fill="#E8E8E8"/>
<path d="M115.419 331.517C127.175 328.688 138.681 324.821 149.777 320.012C155.53 317.497 161.157 314.636 167.287 313.127C173.165 311.65 179.264 311.21 185.331 311.367C192.341 311.524 199.288 312.467 206.204 313.568C206.801 313.662 207.053 312.75 206.455 312.656C194.667 310.801 182.533 309.292 170.682 311.43C164.583 312.53 158.988 314.856 153.392 317.403C147.514 320.075 141.573 322.495 135.474 324.633C128.81 326.959 122.051 328.971 115.167 330.605C114.57 330.731 114.821 331.643 115.419 331.517Z" fill="#161616"/>
<path d="M189.7 311.713C194.982 311.587 200.2 310.833 205.292 309.355C210.479 307.878 215.603 305.803 221.104 306.337C223.902 306.589 226.637 307.375 229.34 308.066C232.169 308.789 234.967 309.512 237.796 310.235C243.235 311.619 248.642 313.002 254.08 314.385C254.677 314.542 254.929 313.63 254.331 313.473C248.704 312.027 243.078 310.613 237.451 309.167C232.295 307.846 227.014 306.086 221.733 305.457C216.546 304.86 211.642 306.463 206.738 307.972C201.174 309.67 195.516 310.644 189.732 310.801C189.103 310.77 189.103 311.713 189.7 311.713Z" fill="#161616"/>
<path d="M244.744 316.585C257.098 313.85 270.08 311.493 282.623 314.385C288.847 315.831 294.694 318.597 300.51 321.143C306.608 323.847 312.738 326.519 318.837 329.222C319.403 329.474 319.874 328.656 319.308 328.405C309.752 324.193 300.29 319.635 290.545 315.894C281.114 312.279 271.306 311.556 261.31 312.687C255.652 313.347 250.025 314.448 244.461 315.705C243.895 315.799 244.146 316.711 244.744 316.585Z" fill="#161616"/>
<path d="M133.054 342.425C136.292 341.859 139.561 341.294 142.799 340.728C146.037 340.162 149.306 339.439 152.575 339.093C155.593 338.779 158.674 339.313 161.66 339.596C164.961 339.942 168.293 340.256 171.593 340.602C172.191 340.665 172.191 339.722 171.593 339.659C168.293 339.313 164.961 338.999 161.66 338.653C158.453 338.339 155.216 337.804 151.978 338.213C145.565 338.999 139.184 340.413 132.802 341.514C132.205 341.639 132.456 342.551 133.054 342.425Z" fill="#161616"/>
<path d="M46.2293 200.652C48.3821 200.652 50.1273 198.907 50.1273 196.754C50.1273 194.601 48.3821 192.856 46.2293 192.856C44.0765 192.856 42.3314 194.601 42.3314 196.754C42.3314 198.907 44.0765 200.652 46.2293 200.652Z" fill="#EC615B"/>
<path d="M56.7602 209.202C57.8886 209.202 58.8035 208.287 58.8035 207.159C58.8035 206.03 57.8886 205.116 56.7602 205.116C55.6317 205.116 54.7169 206.03 54.7169 207.159C54.7169 208.287 55.6317 209.202 56.7602 209.202Z" fill="#EC615B"/>
<path d="M275.99 9.61922C278.647 9.61922 280.8 7.46588 280.8 4.80961C280.8 2.15333 278.647 0 275.99 0C273.334 0 271.181 2.15333 271.181 4.80961C271.181 7.46588 273.334 9.61922 275.99 9.61922Z" fill="#EC615B"/>
<path d="M287.181 15.0575C288.692 15.0575 289.916 13.8331 289.916 12.3226C289.916 10.8122 288.692 9.58777 287.181 9.58777C285.671 9.58777 284.446 10.8122 284.446 12.3226C284.446 13.8331 285.671 15.0575 287.181 15.0575Z" fill="#EC615B"/>
<path d="M285.358 13.9259C287.875 13.9259 289.916 11.8851 289.916 9.36776C289.916 6.85038 287.875 4.80963 285.358 4.80963C282.841 4.80963 280.8 6.85038 280.8 9.36776C280.8 11.8851 282.841 13.9259 285.358 13.9259Z" fill="#5222D0"/>
<path d="M274.45 248.496C277.853 248.496 280.611 245.738 280.611 242.335C280.611 238.932 277.853 236.174 274.45 236.174C271.047 236.174 268.289 238.932 268.289 242.335C268.289 245.738 271.047 248.496 274.45 248.496Z" fill="#5222D0"/>
<path d="M50.756 12.6685C52.9262 12.6685 54.6855 10.9092 54.6855 8.73905C54.6855 6.56889 52.9262 4.80963 50.756 4.80963C48.5859 4.80963 46.8266 6.56889 46.8266 8.73905C46.8266 10.9092 48.5859 12.6685 50.756 12.6685Z" fill="#5222D0"/>
<path d="M112.935 281.378C115.591 281.378 117.745 279.224 117.745 276.568C117.745 273.912 115.591 271.759 112.935 271.759C110.279 271.759 108.126 273.912 108.126 276.568C108.126 279.224 110.279 281.378 112.935 281.378Z" fill="#5222D0"/>
<path d="M147.64 190.907C146.98 190.624 147.734 189.461 148.08 189.304C148.489 189.115 149.306 189.367 149.746 189.492C150.438 189.712 151.035 190.09 151.726 190.278C152.481 190.498 153.392 190.561 154.115 190.215C156.63 188.927 153.644 184.588 157.322 184.588C159.334 184.588 161.031 187.575 162.697 185.343C163.295 184.557 163.546 183.551 163.86 182.608C164.112 181.791 164.332 180.942 164.898 180.282C165.558 179.527 167.57 178.773 167.79 180.407C167.853 181.005 168.827 181.005 168.733 180.407C168.576 179.276 167.758 178.521 166.595 178.458C165.212 178.364 164.206 179.402 163.64 180.533C163.232 181.319 163.043 182.199 162.76 183.048C162.572 183.645 162.32 184.683 161.786 185.06C161.22 185.437 160.78 185.029 160.308 184.746C159.082 183.928 157.605 183.3 156.127 183.834C154.776 184.337 154.241 185.5 154.304 186.883C154.304 187.292 154.43 187.795 154.398 188.204C154.178 189.65 153.204 189.712 152.198 189.492C151.192 189.272 150.343 188.644 149.306 188.455C148.206 188.235 147.105 188.518 146.602 189.618C146.194 190.561 146.445 191.504 147.388 191.881C147.954 192.039 148.206 191.127 147.64 190.907Z" fill="#5222D0"/>
<path d="M163.86 192.416C163.389 191.693 163.389 190.781 163.892 190.058C164.615 189.021 165.621 189.178 166.721 189.335C167.538 189.461 168.544 189.618 169.142 188.895C169.55 188.424 169.487 187.858 169.645 187.323C169.865 186.537 170.368 185.846 171.028 185.374C172.411 184.368 174.36 184.211 175.743 185.28C176.089 185.531 176.497 185.374 176.56 184.934C176.938 181.885 179.955 179.622 182.973 180.156C183.57 180.25 183.822 179.339 183.225 179.244C179.547 178.616 176.057 181.256 175.617 184.934C175.9 184.808 176.152 184.714 176.435 184.588C175.146 183.582 173.511 183.331 171.971 183.865C170.21 184.463 169.393 185.626 168.733 187.26C168.419 188.078 168.041 188.581 167.13 188.455C166.627 188.392 166.155 188.266 165.652 188.235C164.929 188.203 164.301 188.392 163.735 188.864C162.54 189.87 162.226 191.598 163.075 192.919C163.389 193.422 164.206 192.95 163.86 192.416Z" fill="#5222D0"/>
<path d="M179.767 20.3701C179.232 19.8671 179.389 19.5528 180.207 19.3956C180.553 18.9241 180.93 18.8298 181.338 19.1441C181.904 19.2698 182.282 19.7728 182.69 20.15C183.193 20.5901 183.633 21.0931 184.199 21.4389C184.985 21.879 185.959 22.0676 186.777 21.6589C187.783 21.156 187.814 20.15 188.16 19.207C189.103 16.6921 192.309 16.4407 193.818 18.5783C194.007 18.8298 194.478 18.9241 194.636 18.5783C195.233 17.1637 195.987 15.5605 197.339 14.7117C198.691 13.863 200.954 13.9573 201.551 15.7176C201.74 16.2835 202.652 16.032 202.463 15.4662C201.866 13.7687 200.137 13.0142 198.408 13.2971C196.019 13.7058 194.698 16.0949 193.818 18.1067C194.101 18.1067 194.353 18.1067 194.636 18.1067C193.535 16.535 191.649 15.6862 189.763 16.3778C188.977 16.6607 188.254 17.2265 187.783 17.9496C187.531 18.3268 187.374 18.7354 187.217 19.1755C187.123 19.4585 187.123 19.8042 186.965 20.0557C186.557 20.7473 185.425 21.0302 184.702 20.6216C183.162 19.7728 181.653 17.0694 179.515 18.1696C178.321 18.7669 178.164 20.4644 179.295 21.1874C179.83 21.5018 180.301 20.6844 179.767 20.3701Z" fill="#EC615B"/>
<path d="M199.948 20.1186C199.728 16.9751 203.752 18.0124 205.355 18.7983C206.172 19.207 207.178 19.9614 208.058 19.2698C208.341 19.0498 208.467 18.7354 208.593 18.4211C209.064 17.3837 209.379 16.6293 210.636 16.252C212.585 15.6862 214.471 16.9122 216.043 17.9181C216.546 18.2325 217.018 17.4152 216.515 17.1008C214.848 16.0634 212.962 14.9003 210.919 15.2461C210.259 15.3404 209.599 15.5919 209.064 16.0006C208.247 16.5978 208.09 17.6352 207.273 18.1382C206.487 18.6097 206.172 18.1382 205.386 17.7609C204.978 17.5723 204.569 17.3837 204.129 17.2265C203.312 16.9436 202.432 16.8179 201.583 17.0065C200.105 17.3523 198.911 18.5468 199.005 20.1186C199.036 20.7159 199.98 20.7159 199.948 20.1186Z" fill="#EC615B"/>
<path d="M290.922 150.324C288.847 145.766 296.706 143.754 297.241 148.532C297.429 150.135 296.549 151.833 294.914 152.273C293.091 152.744 291.142 151.518 290.639 149.758C290.482 149.161 289.57 149.412 289.727 150.01C290.356 152.273 292.84 153.782 295.166 153.185C297.461 152.587 298.592 150.041 298.058 147.84C297.492 145.514 295.072 144.383 292.84 144.98C290.23 145.671 289.005 148.406 290.105 150.858C290.356 151.361 291.174 150.858 290.922 150.324Z" fill="#EC615B"/>
<path d="M296.769 153.939C295.071 153.782 294.443 151.518 295.606 150.387C296.58 149.412 298.246 149.475 299.284 150.292C300.353 151.141 301.39 153.625 300.195 154.819C298.624 156.391 296.706 153.845 295.952 152.713C295.606 152.21 294.789 152.681 295.134 153.184C296.235 154.882 298.749 157.554 300.856 155.479C302.522 153.845 301.327 150.544 299.692 149.381C298.026 148.186 295.292 148.595 294.349 150.544C293.405 152.43 294.789 154.693 296.8 154.882C297.366 154.945 297.366 154.002 296.769 153.939Z" fill="#EC615B"/>
<path d="M11.2104 114.425C12.4678 114.362 13.1279 113.513 14.0081 112.727C16.0829 110.873 18.4719 112.633 19.7922 114.456C21.0496 116.185 22.8729 117.411 24.4761 115.336C25.2305 114.362 25.6078 112.916 26.6451 112.224C28.7513 110.81 30.5431 113.607 31.8634 114.833C33.3723 116.217 36.4844 116.845 37.176 114.268C37.3331 113.67 36.4215 113.419 36.2643 114.016C35.9185 115.368 34.2839 115.336 33.3094 114.77C32.555 114.33 32.0206 113.639 31.4233 113.042C30.5431 112.098 29.5686 111.187 28.2483 110.935C26.0793 110.558 25.1048 112.507 24.1303 114.079C23.8788 114.519 23.5645 115.116 23.0929 115.368C21.9613 115.965 21.1439 114.77 20.5467 113.985C19.7922 112.916 18.9435 112.004 17.7175 111.438C16.7116 110.967 15.517 110.81 14.4797 111.25C13.2851 111.753 12.5307 113.45 11.179 113.513C10.6131 113.513 10.6131 114.456 11.2104 114.425Z" fill="#EC615B"/>
<path d="M33.1837 107.949C34.504 109.521 36.8616 111.627 38.9364 109.898C39.4393 109.458 39.7222 108.829 40.2566 108.389C41.0425 107.792 42.0799 107.666 42.9915 107.949C44.9719 108.483 46.1351 110.37 47.1724 111.973C47.361 112.256 47.8326 112.319 47.9897 111.973C49.3415 109.018 52.9565 108.295 55.7857 109.426C56.3515 109.647 56.603 108.735 56.0372 108.515C52.8622 107.226 48.6813 108.169 47.1724 111.47C47.4553 111.47 47.7068 111.47 47.9897 111.47C46.5751 109.269 44.7833 106.754 41.8284 106.849C40.791 106.88 39.848 107.32 39.1564 108.075C38.3391 109.018 37.6475 109.772 36.2958 109.364C35.2584 109.049 34.504 108.075 33.8124 107.257C33.4666 106.817 32.8065 107.477 33.1837 107.949Z" fill="#EC615B"/>
<path d="M89.7988 140.83C89.3901 140.013 88.9186 139.164 88.5414 138.316C88.1327 137.435 88.3213 137.09 88.8557 136.335C89.5473 135.361 90.6161 134.48 91.8421 135.141C92.7223 135.612 93.2881 136.681 93.5396 137.593C93.9797 139.133 93.6025 141.333 91.8107 141.836C90.3332 142.245 88.4156 141.333 88.4785 139.636C88.4785 139.039 87.5355 139.039 87.5355 139.636C87.4726 141.742 89.5788 143.062 91.5278 142.842C93.9168 142.559 94.9228 140.044 94.577 137.907C94.2312 135.832 92.3136 133.192 89.9245 134.166C88.7614 134.638 87.8812 135.864 87.3468 136.964C87.0325 137.624 87.0954 137.655 87.4097 138.316C87.9127 139.321 88.4156 140.327 88.9186 141.302C89.2644 141.836 90.0817 141.365 89.7988 140.83Z" fill="#5222D0"/>
<path d="M93.2881 146.992C92.0936 145.577 90.0503 142.811 91.8107 141.05C93.0681 139.793 95.3314 140.265 96.3688 141.522C97.4375 142.811 97.6576 145.326 95.9915 146.269C94.577 147.086 92.5337 146.3 92.2822 144.665C92.1879 144.068 91.2763 144.32 91.3706 144.917C91.7478 147.055 94.3569 148.06 96.243 147.212C98.5378 146.143 98.6321 142.968 97.2804 141.113C95.9915 139.321 93.1624 138.693 91.402 140.17C88.8558 142.276 91.0562 145.734 92.6594 147.62C93.0052 148.123 93.6653 147.463 93.2881 146.992Z" fill="#EC615B"/>
<path d="M279.165 83.3665C279.197 80.6002 283 81.4175 284.635 81.6061C286.05 81.7633 287.338 81.5747 288.596 80.8831C289.979 80.1601 291.111 79.0284 292.462 78.2425C293.343 77.7082 294.411 77.2366 295.449 77.2366C296.549 77.2681 297.241 77.9282 298.215 78.3369C300.478 79.2485 301.924 77.1423 303.339 75.7592C306.137 73.0243 310.129 74.156 313.398 75.2876C313.964 75.4762 314.216 74.5646 313.65 74.376C310.726 73.3701 307.017 72.2699 304.125 73.9359C302.742 74.7218 301.924 76.1678 300.667 77.0795C298.875 78.3683 297.366 76.325 295.48 76.2936C291.425 76.2307 289.287 80.9146 285.201 80.6945C283.44 80.6002 281.743 79.9401 280.045 80.7259C278.945 81.2289 278.254 82.1091 278.222 83.3351C278.191 83.9638 279.134 83.9638 279.165 83.3665Z" fill="#5222D0"/>
<path d="M302.679 82.2977C304.691 79.4371 308.463 78.0539 311.858 79.0284C313.336 79.4685 314.719 80.6631 316.353 80.5688C317.705 80.4745 318.428 79.3742 319.34 78.5255C320.817 77.1737 322.735 76.0735 324.809 76.1364C326.067 76.1678 327.041 76.6393 328.016 77.4567C328.33 77.7396 328.582 77.9911 329.022 78.1168C329.65 78.274 330.216 77.9911 330.782 77.7396C331.757 77.2995 332.763 76.9223 333.8 76.6393C335.938 76.1049 338.107 76.0106 340.276 76.2936C340.873 76.3564 340.873 75.4134 340.276 75.3505C338.201 75.0676 336.126 75.1304 334.083 75.602C333.171 75.822 332.26 76.1049 331.379 76.4507C330.688 76.7337 330.342 76.9223 329.556 76.9223C328.707 76.9223 328.77 76.7965 328.204 76.3564C325.532 74.3131 321.949 75.2562 319.528 77.1737C318.868 77.6767 318.334 78.3683 317.705 78.8713C316.196 80.0658 315.002 79.3114 313.461 78.6198C312.141 78.0225 310.758 77.7396 309.312 77.8025C306.326 77.9282 303.622 79.4057 301.925 81.8262C301.516 82.3291 302.333 82.8007 302.679 82.2977Z" fill="#5222D0"/>
<path d="M234.307 293.135C234.904 296.907 235.502 300.711 236.067 304.483C223.65 308.507 217.552 311.053 217.803 312.122C218.118 313.442 228.051 312.467 247.604 309.292C246.472 303.32 245.372 297.347 244.241 291.374C240.908 291.94 237.608 292.537 234.307 293.135Z" fill="black"/>
<path d="M207.586 166.827C207.366 171.103 207.052 177.201 206.769 184.588C206.486 192.416 206.329 196.502 206.36 201.532C206.36 203.701 206.455 212.534 207.586 223.914C208.529 233.502 210.007 247.836 215.257 265.472C217.331 272.45 220.538 281.818 225.536 292.506C227.831 292.852 230.534 293.04 233.615 292.915C239.399 292.632 244.083 291.217 247.321 289.897C246.378 286.816 245.057 282.447 243.674 277.197C241.819 270.093 236.475 248.685 234.401 219.922C233.363 205.461 232.986 187.418 234.809 166.67C225.756 166.702 216.671 166.765 207.586 166.827Z" fill="white"/>
<path opacity="0.09" d="M234.024 169.248C233.427 171.511 232.641 174.781 231.792 178.741C229.592 189.209 227.328 204.141 227.548 229.384C227.674 244.913 228.774 266.383 232.798 292.317C234.37 292.16 235.973 291.972 237.639 291.72C241.129 291.186 244.366 290.494 247.321 289.708C246.001 285.433 244.178 279.083 242.292 271.35C235.596 243.781 233.71 220.393 233.207 204.959C232.924 195.779 232.924 183.614 234.024 169.248Z" fill="#606060"/>
<path d="M234.118 167.645C230.975 199.457 232.924 231.741 239.871 262.957C241.852 271.821 244.209 280.561 246.976 289.205C247.164 289.771 248.076 289.52 247.887 288.954C238.205 258.556 233.364 226.68 233.616 194.773C233.678 185.72 234.181 176.635 235.062 167.613C235.124 167.048 234.181 167.047 234.118 167.645Z" fill="#161616"/>
<path d="M206.298 195.842C205.135 221.619 208.75 247.553 216.861 272.041C219.124 278.894 221.764 285.622 224.751 292.192C225.002 292.757 225.82 292.254 225.568 291.72C215.037 268.301 208.845 242.995 207.367 217.375C206.958 210.208 206.927 203.041 207.241 195.842C207.273 195.213 206.33 195.245 206.298 195.842Z" fill="#161616"/>
<path d="M225.128 292.474C226.197 293.669 228.649 293.386 230.095 293.418C232.295 293.449 234.527 293.229 236.696 292.915C239.054 292.569 241.412 292.066 243.738 291.5C244.901 291.217 247.321 291.154 247.919 289.865C248.17 289.331 247.353 288.828 247.101 289.394C246.818 290.054 245.247 290.18 244.649 290.305C243.769 290.525 242.92 290.714 242.04 290.934C240.374 291.311 238.739 291.657 237.073 291.909C235.344 292.192 233.616 292.38 231.887 292.443C230.566 292.506 226.794 292.915 225.82 291.814C225.379 291.343 224.719 292.034 225.128 292.474Z" fill="#161616"/>
<path d="M198.314 166.639C197.402 168.619 196.176 172.391 195.296 175.724C194.196 179.967 193.913 182.514 193.284 186.223C192.121 193.076 191.335 194.239 189.637 201.752C187.846 209.8 187.028 215.992 186.4 220.928C185.897 224.763 184.985 232.59 184.576 242.712C184.388 247.082 184.293 249.66 184.388 253.212C184.639 264.371 186.431 273.016 187.217 276.411C189.323 285.747 192.404 293.732 195.484 300.208C196.899 300.931 199.037 301.842 201.74 302.439C205.072 303.163 209.347 304.106 213.434 302.031C214.566 301.465 217.143 299.893 219.092 296.184C217.583 292.066 215.729 286.219 214.251 279.052C210.605 261.259 211.925 247.176 212.837 238.311C214.534 221.556 218.432 208.982 225.128 187.292C227.391 179.999 229.403 174.089 230.786 170.16C231.258 167.047 232.358 157.711 227.36 153.813C220.035 148.029 202.966 156.611 198.314 166.639Z" fill="white"/>
<path opacity="0.08" d="M226.354 183.362C224.311 186.6 221.481 191.41 218.684 197.477C215.226 204.959 210.133 218.098 207.398 244.284C205.889 258.587 204.884 278.612 207.21 302.785C208.184 302.88 212.334 303.225 215.886 300.365C217.709 298.887 218.652 297.19 219.124 296.121C217.583 291.877 215.603 285.653 214.094 277.951C209.63 255.507 212.428 237.463 214.503 224.889C216.2 214.389 219.501 199.897 226.354 183.362Z" fill="#606060"/>
<path d="M203.249 302.377C204.318 306.212 205.387 310.078 206.455 313.913C189.606 319.037 181.338 322.244 181.621 323.501C181.936 324.947 193.41 323.878 216.043 320.295C215.446 314.133 214.849 308.004 214.283 301.842C210.573 301.999 206.895 302.188 203.249 302.377Z" fill="black"/>
<path d="M197.968 167.016C194.636 175.441 192.938 184.368 191.146 193.233C189.26 202.506 187.437 211.78 186.117 221.148C183.665 238.5 182.91 256.261 186.274 273.55C188.066 282.855 191.083 291.909 195.516 300.27C195.799 300.805 196.616 300.333 196.333 299.799C179.515 267.829 184.608 230.421 191.461 196.502C193.441 186.663 195.201 176.635 198.911 167.267C199.099 166.702 198.188 166.45 197.968 167.016Z" fill="#161616"/>
<path d="M225.945 183.299C215.414 211.371 208.373 241.549 212.459 271.633C213.591 279.932 215.572 288.073 218.464 295.932C218.684 296.498 219.595 296.247 219.375 295.681C208.907 267.42 211.045 236.425 218.904 207.788C221.167 199.583 223.87 191.504 226.857 183.519C227.077 182.954 226.165 182.734 225.945 183.299Z" fill="#161616"/>
<path d="M195.61 300.239C200.043 302.691 205.135 303.728 210.165 303.068C214.283 302.502 219.061 300.616 219.47 295.87C219.532 295.272 218.589 295.272 218.526 295.87C218.086 300.805 212.114 302.125 208.059 302.314C203.878 302.502 199.76 301.465 196.113 299.422C195.547 299.139 195.076 299.956 195.61 300.239Z" fill="#161616"/>
<path d="M204.789 84.7182C203.94 85.7241 202.746 87.2644 201.614 89.3077C197.748 96.0978 197.496 102.762 197.433 108.609C197.37 117.128 197.308 121.403 198.219 130.677C199.068 139.353 199.288 151.801 196.239 167.676C198.974 169.688 202.966 172.014 208.184 173.24C223.21 176.761 235.659 167.99 238.016 166.293C235.03 148.783 233.395 134.763 232.452 124.924C231.855 118.7 229.655 109.646 225.285 91.5082C223.965 85.9756 222.613 80.6944 218.526 79.1856C212.868 77.0479 205.921 83.6179 204.789 84.7182Z" fill="#FF5B14"/>
<path opacity="0.1" d="M218.369 79.6257C218.872 81.669 219.595 84.7496 220.318 88.5533C221.261 93.4572 222.519 100.876 223.399 111.91C224.311 123.289 225.348 144.634 225.662 172.234C227.8 171.606 230.378 170.662 233.112 169.154C234.936 168.148 236.508 167.079 237.828 166.073C237.608 163.652 237.199 159.974 236.539 155.542C235.69 149.978 234.841 146.111 234.433 144.194C233.427 139.227 232.295 131.808 232.169 121.498C230.881 116.028 229.906 111.627 229.246 108.703C227.423 100.404 226.888 97.3552 225.505 92.3256C224.122 87.2645 222.676 83.2407 221.764 80.8202C220.633 80.3801 219.501 80.0029 218.369 79.6257Z" fill="#606060"/>
<path d="M204.758 87.736C205.041 88.3019 205.512 88.4905 206.55 88.9934C207.43 89.4335 208.278 89.9679 209.159 90.3452C211.862 91.5083 215.037 96.6637 215.54 97.481C217.458 100.593 219.69 104.24 220.978 109.521C221.324 110.904 222.11 114.488 221.198 126.59C220.224 139.007 218.966 140.736 219.941 146.929C220.664 151.424 221.576 156.799 226.008 159.723C230.126 162.426 234.873 161.483 235.847 161.295C241.82 160.132 245.215 155.511 248.516 151.015C253.545 144.194 255.463 137.372 256.28 133.412C256.658 131.557 256.595 126.119 256.5 115.273C256.375 104.082 256.186 100.216 253.262 96.9466C251.282 94.7461 248.862 93.7087 247.195 93.1743C247.321 92.4828 247.353 91.4454 246.787 90.5652C245.718 88.9306 243.172 88.962 241.537 88.9934C234.527 89.182 229.309 93.8973 229.057 94.1174C224.688 98.1726 223.399 103.139 222.99 105.214C222.11 101.316 220.664 98.3297 219.532 96.4122C218.558 94.7461 217.112 93.0486 214.188 89.5907C211.894 86.8873 210.793 85.8499 209.064 85.2841C208.687 85.1583 205.826 84.3096 204.883 85.5984C204.443 86.1957 204.443 87.1073 204.758 87.736Z" fill="white"/>
<path opacity="0.11" d="M204.538 86.5728C204.726 86.2271 206.833 87.0129 207.053 87.1072C210.165 88.3018 212.931 90.7852 216.483 96.5378C218.306 99.4928 220.601 103.674 222.55 109.112C223.933 107.697 225.096 106.534 226.008 105.654C226.008 105.654 229.372 102.416 234.81 99.2727C235.344 98.9584 236.004 98.5811 236.476 98.8641C237.45 99.3985 236.413 102.008 236.696 104.428C236.916 106.251 237.985 108.766 242.04 111.564C242.134 112.098 242.166 112.853 241.726 113.356C240.845 114.33 238.582 113.544 237.419 113.136C235.533 112.476 231.886 110.747 227.58 105.686C227.171 107.32 226.637 109.646 226.228 112.507C225.851 114.99 224.814 123.258 226.542 133.883C227.234 138.095 228.523 143.722 231.163 150.135C232.327 150.638 233.804 151.11 235.564 151.393C239.242 151.958 242.292 151.235 244.052 150.67C243.015 151.172 241.6 152.021 240.374 153.499C238.897 155.291 238.865 156.642 237.639 158.308C236.822 159.44 235.344 160.855 232.609 161.861C231.761 161.766 230.472 161.546 229.057 160.917C224.751 159 222.802 154.945 221.921 153.059C220.758 150.512 218.967 145.357 220.664 127.91C221.639 117.945 222.707 114.833 221.073 109.143C219.815 104.774 217.646 101.159 216.892 99.9329C215.54 97.7324 213.12 93.803 208.719 90.1879C206.644 88.4275 204.349 86.9815 204.538 86.5728Z" fill="#606060"/>
<path d="M239.588 93.6144C239.022 94.3688 238.299 95.4691 237.733 96.9151C237.419 97.7639 236.665 99.7443 236.853 102.259C237.199 107.257 240.783 110.307 241.443 110.841C241.883 111.187 242.26 111.47 242.512 111.627C242.134 112.916 241.694 114.833 241.537 117.191C241.286 120.523 241.034 124.264 242.983 125.364C244.241 126.056 246.127 125.584 247.164 124.578C247.416 124.327 248.139 123.541 248.327 119.989C248.547 115.776 247.667 114.016 248.924 112.79C249.459 112.224 250.37 111.878 251.156 111.533C252.037 111.155 252.822 110.967 253.388 110.841C253.042 113.419 252.791 115.713 252.602 117.568C252.382 119.863 252.288 121.026 253.074 121.749C253.797 122.409 254.992 122.535 255.903 122.126C257.098 121.592 257.475 120.114 258.135 117.159C258.669 114.833 259.11 112.884 258.827 110.244C258.669 108.892 258.387 107.792 258.135 107.037C258.072 106.503 257.915 105.717 257.664 104.805C257.129 102.982 256.626 102.448 256.312 101.285C255.84 99.6186 256.375 98.8012 256.5 96.9151C256.626 95.4377 256.5 93.3315 255.432 90.6909C255.023 90.7224 254.174 90.7852 253.294 91.3825C252.225 92.0741 251.785 93.08 251.628 93.4258C250.811 93.2372 249.333 93.0486 247.636 93.5201C244.712 94.306 243.172 96.475 242.763 97.1352C243.58 95.3433 242.889 93.583 241.789 93.1429C240.846 92.7342 239.714 93.5515 239.588 93.6144Z" fill="black"/>
<path d="M243.14 103.359C243.455 102.762 245.027 101.442 245.561 102.542C245.812 103.077 246.63 102.605 246.378 102.071C246.032 101.348 245.184 101.128 244.429 101.285C243.518 101.442 242.763 102.071 242.323 102.888C242.04 103.422 242.858 103.894 243.14 103.359Z" fill="white"/>
<path d="M252.351 100.939C252.539 100.53 252.728 100.059 253.042 99.7444C253.357 99.43 254.3 99.0842 254.331 99.8073C254.363 100.405 255.306 100.405 255.274 99.8073C255.211 98.8956 254.426 98.2983 253.514 98.4241C252.477 98.6127 251.942 99.5558 251.534 100.436C251.282 101.002 252.099 101.505 252.351 100.939Z" fill="white"/>
<path d="M252.602 103.925C252.602 103.957 252.602 103.988 252.602 104.02C252.54 104.082 252.477 104.145 252.445 104.177C252.288 104.271 252.037 104.177 252.068 103.988C252.068 103.988 252.068 103.894 252.099 103.925L252.005 104.02C252.225 104.02 252.445 104.02 252.665 104.02C252.634 103.988 252.634 103.988 252.602 103.957C252.634 103.988 252.634 103.988 252.634 103.988C252.602 103.957 252.634 103.957 252.634 104.02C252.665 104.208 252.571 104.334 252.32 104.428C252.225 104.397 252.162 104.397 252.068 104.365C251.942 104.302 251.974 104.114 252.005 104.02C252.037 103.988 252.005 103.988 251.974 104.051C252.005 104.02 252.005 104.02 251.974 104.051C251.754 104.208 251.659 104.46 251.817 104.711C251.942 104.9 252.257 105.025 252.477 104.868C252.697 104.711 252.917 104.491 252.948 104.177C252.948 103.831 252.697 103.517 252.351 103.517C252.005 103.517 251.754 103.737 251.722 104.082C251.691 104.334 251.848 104.554 252.005 104.711C252.194 104.9 252.477 104.868 252.665 104.711C253.074 104.397 253.168 103.737 252.697 103.422C252.477 103.297 252.194 103.265 251.974 103.391C251.691 103.548 251.659 103.925 251.722 104.208C251.754 104.46 252.068 104.585 252.288 104.523C252.54 104.428 252.634 104.177 252.602 103.925Z" fill="white"/>
<path d="M247.573 104.9C246.661 105.434 245.435 105.183 244.838 104.302C244.492 103.8 243.675 104.271 244.021 104.774C244.932 106.063 246.661 106.503 248.076 105.717C248.579 105.403 248.107 104.585 247.573 104.9Z" fill="white"/>
<path d="M246.881 106.943C246.19 107.477 245.592 108.169 245.184 108.955C244.901 109.489 245.718 109.961 246.001 109.426C246.378 108.703 246.913 108.106 247.573 107.603C247.761 107.446 247.73 107.1 247.573 106.943C247.353 106.754 247.07 106.786 246.881 106.943Z" fill="white"/>
<path d="M254.52 103.485C255.149 102.762 255.62 101.945 255.935 101.033C256.123 100.467 255.212 100.216 255.023 100.782C254.771 101.536 254.363 102.228 253.86 102.825C253.483 103.297 254.143 103.957 254.52 103.485Z" fill="white"/>
<path d="M254.583 104.68C255.337 104.522 256.218 104.334 256.815 104.963C257.223 105.403 257.884 104.742 257.475 104.302C256.626 103.391 255.4 103.548 254.3 103.799C253.734 103.894 253.986 104.805 254.583 104.68Z" fill="white"/>
<path d="M204.381 87.0131C205.827 84.7497 209.253 86.1014 210.982 87.2331C213.057 88.5534 214.628 90.5338 216.043 92.5142C218.904 96.5065 221.45 100.845 222.393 105.717C222.519 106.314 223.43 106.063 223.305 105.466C222.204 99.6501 218.809 94.0546 214.974 89.5908C212.742 87.0131 206.424 82.1406 203.563 86.573C203.249 87.0445 204.066 87.5475 204.381 87.0131Z" fill="#161616"/>
<path d="M206.33 89.1507C213.874 93.3945 218.118 101.348 220.255 109.458C220.413 110.055 221.324 109.804 221.167 109.206C218.967 100.876 214.534 92.6715 206.801 88.3334C206.267 88.019 205.795 88.8364 206.33 89.1507Z" fill="#161616"/>
<path d="M223.305 105.308C224.09 99.7444 227.643 95.092 232.515 92.42C235.03 91.0368 237.828 90.188 240.688 89.7794C242.04 89.5908 243.612 89.4022 244.932 89.9051C246.378 90.4395 247.761 92.7343 245.938 93.7717C245.404 94.0546 245.875 94.8719 246.41 94.589C248.422 93.4573 247.919 90.5653 246.158 89.465C243.423 87.7361 238.897 88.9621 236.099 89.9051C229.183 92.137 223.462 97.7325 222.424 105.12C222.299 105.654 223.21 105.906 223.305 105.308Z" fill="#161616"/>
<path d="M225.411 106.723C226.951 104.931 228.9 103.422 230.786 102.008C232.609 100.625 234.558 99.4929 236.822 98.9899C237.419 98.8642 237.168 97.9525 236.57 98.0783C234.244 98.6127 232.201 99.7758 230.315 101.19C228.366 102.668 226.354 104.208 224.751 106.063C224.342 106.503 225.002 107.195 225.411 106.723Z" fill="#161616"/>
<path d="M236.948 99.0842C237.608 97.5753 238.457 96.1293 239.494 94.8404C239.683 94.6203 239.903 94.2431 240.154 94.0859C240.374 93.6773 240.657 93.6458 241.066 94.0231C241.569 94.0231 241.789 94.2117 241.789 94.6518C242.134 95.3119 242.166 96.4436 242.292 97.1981C242.417 97.7953 243.329 97.5438 243.203 96.9466C242.952 95.752 242.637 91.4768 240.374 92.6399C239.494 93.08 238.834 94.1802 238.268 94.9347C237.419 96.0978 236.728 97.3238 236.13 98.6127C235.879 99.1471 236.696 99.65 236.948 99.0842Z" fill="#161616"/>
<path d="M243.015 97.481C244.618 95.4063 247.887 92.5457 250.685 94.086C251.219 94.3689 251.691 93.5516 251.156 93.2687C247.919 91.5397 244.272 94.3689 242.323 96.8209C241.977 97.2924 242.637 97.9526 243.015 97.481Z" fill="#161616"/>
<path d="M251.597 93.9289C252.037 93.2373 254.08 90.7539 254.96 91.414C255.432 91.7598 255.526 92.9858 255.652 93.5517C255.84 94.4318 255.903 95.312 255.935 96.2237C255.966 96.8209 256.909 96.8209 256.878 96.2237C256.846 94.9662 256.689 93.7403 256.375 92.5143C256.186 91.8227 256.029 90.5024 255.212 90.2824C254.457 90.0938 253.42 90.8168 252.854 91.2254C252.005 91.8227 251.345 92.5772 250.811 93.4573C250.465 93.9603 251.282 94.4318 251.597 93.9289Z" fill="#161616"/>
<path d="M226.637 105.183C228.806 107.289 231.101 109.238 233.553 110.998C235.973 112.727 238.331 113.953 241.38 113.796C241.977 113.764 241.977 112.821 241.38 112.853C238.268 113.01 235.973 111.627 233.553 109.867C231.321 108.232 229.246 106.44 227.266 104.523C226.857 104.114 226.197 104.774 226.637 105.183Z" fill="#161616"/>
<path d="M220.287 108.42C223.713 123.635 214.786 140.264 222.173 154.819C223.556 157.554 225.662 160.037 228.554 161.263C231.384 162.458 234.653 162.364 237.576 161.42C244.052 159.346 248.233 153.342 251.439 147.683C253.483 144.131 255.18 140.327 256.186 136.335C256.689 134.355 257.003 132.28 257.098 130.237C257.192 127.879 256.878 125.521 256.972 123.164C257.003 122.566 256.06 122.566 256.029 123.164C255.903 126.999 256.406 130.645 255.652 134.449C254.992 137.844 253.766 141.145 252.225 144.225C249.365 150.009 245.498 156.517 239.557 159.566C236.476 161.138 232.672 161.735 229.372 160.509C226.134 159.314 223.996 156.454 222.613 153.404C219.658 146.772 220.004 139.227 220.79 132.186C221.67 124.201 223.053 116.122 221.261 108.138C221.041 107.603 220.13 107.823 220.287 108.42Z" fill="#161616"/>
<path d="M234.276 139.887C232.515 142.968 231.352 146.3 230.849 149.821C230.755 150.418 231.666 150.67 231.761 150.072C232.264 146.615 233.364 143.377 235.093 140.359C235.407 139.856 234.59 139.384 234.276 139.887Z" fill="#161616"/>
<path d="M234.873 140.233C239.525 139.824 244.429 138.944 249.082 139.447C249.679 139.51 249.679 138.567 249.082 138.504C244.429 137.97 239.525 138.881 234.873 139.29C234.276 139.353 234.276 140.296 234.873 140.233Z" fill="#161616"/>
<path d="M231.321 150.67C233.615 152.021 236.287 151.896 238.865 151.833C241.569 151.738 244.272 151.424 246.63 150.009C247.164 149.695 246.661 148.878 246.158 149.192C243.926 150.544 241.411 150.795 238.865 150.89C236.476 150.984 233.961 151.141 231.792 149.884C231.289 149.569 230.818 150.387 231.321 150.67Z" fill="#161616"/>
<path d="M248.642 139.227C248.044 142.685 247.133 146.017 245.907 149.286C245.687 149.852 246.598 150.104 246.818 149.538C248.076 146.269 248.987 142.905 249.553 139.479C249.647 138.881 248.736 138.63 248.642 139.227Z" fill="#161616"/>
<path d="M234.024 141.522C235.564 144.917 239.934 145.766 243.297 145.797C243.895 145.797 243.895 144.854 243.297 144.854C240.28 144.791 236.224 144.1 234.841 141.019C234.59 140.485 233.773 140.987 234.024 141.522Z" fill="#161616"/>
<path d="M240.814 144.571C240.72 145.357 240.625 146.143 240.531 146.897C240.468 147.495 241.411 147.495 241.474 146.897C241.569 146.112 241.663 145.326 241.757 144.571C241.82 143.974 240.877 143.974 240.814 144.571Z" fill="#161616"/>
<path d="M242.606 144.571C242.512 145.357 242.417 146.143 242.354 146.929C242.292 147.526 243.235 147.526 243.297 146.929C243.392 146.143 243.486 145.357 243.549 144.571C243.612 143.974 242.669 143.974 242.606 144.571Z" fill="#161616"/>
<path d="M243.423 145.891C245.655 145.388 247.51 144.005 248.673 142.056C248.987 141.522 248.17 141.05 247.856 141.585C246.787 143.345 245.152 144.508 243.172 144.98C242.574 145.137 242.826 146.049 243.423 145.891Z" fill="#161616"/>
<path d="M236.539 97.3867C235.596 102.951 236.633 109.584 242.323 112.13C242.857 112.381 243.36 111.564 242.795 111.313C237.482 108.923 236.57 102.794 237.451 97.6382C237.545 97.0409 236.633 96.7894 236.539 97.3867Z" fill="#161616"/>
<path d="M255.872 95.8779C255.935 97.6697 255.903 99.4929 256.155 101.253C256.406 103.171 258.135 105.308 257.223 107.226C256.972 107.76 257.789 108.263 258.041 107.698C258.858 105.969 258.135 104.523 257.538 102.825C256.752 100.656 256.94 98.1412 256.846 95.8464C256.783 95.2492 255.84 95.2492 255.872 95.8779Z" fill="#161616"/>
<path d="M244.901 111.47C246.284 110.747 247.856 111.501 248.17 113.01C248.201 113.167 248.422 113.104 248.39 112.947C248.013 111.281 246.284 110.464 244.775 111.25C244.649 111.344 244.775 111.564 244.901 111.47Z" fill="white"/>
<path d="M247.29 113.073C247.51 113.324 247.667 113.607 247.761 113.922C247.824 114.079 248.044 114.016 247.981 113.859C247.856 113.513 247.667 113.199 247.447 112.916C247.353 112.79 247.164 112.979 247.29 113.073Z" fill="white"/>
<path d="M253.608 110.872C253.891 109.584 254.709 108.515 255.903 107.918C256.029 107.855 255.934 107.635 255.777 107.729C254.52 108.326 253.671 109.458 253.388 110.81C253.357 110.967 253.577 111.03 253.608 110.872Z" fill="white"/>
<path d="M198.251 44.2296C196.082 45.3298 194.258 47.4046 193.441 48.3162C191.429 50.611 190.392 52.7486 189.26 55.1376C188.317 57.0866 187.217 59.8529 186.337 63.3108C187.563 63.5309 188.789 63.7195 190.015 63.9395C189.952 65.1341 189.952 66.8945 190.423 68.9692C190.863 70.8553 191.586 73.8731 194.101 75.9793C197.559 78.9342 202.149 78.2112 202.997 78.0854C203.06 79.5629 203.375 81.6691 204.569 83.8381C204.884 84.3725 205.198 84.8755 205.512 85.3156C207.241 84.8126 209.913 83.7753 212.522 81.6376C219.187 76.2622 220.098 68.2462 220.381 65.92C220.79 62.3363 221.576 55.5777 217.143 49.9823C212.522 44.1981 203.752 41.4633 198.251 44.2296Z" fill="white"/>
<path d="M191.806 50.7681C192.687 49.4478 194.384 47.4988 196.302 46.1471C199.382 43.9781 200.766 44.8897 202.337 42.9721C203.469 41.589 204.192 39.3256 203.343 38.2568C201.991 36.5593 197.182 38.6026 196.553 38.8855C195.17 39.4828 190.612 41.4004 188.789 46.2414C187.28 50.2966 188.286 54.729 188.977 54.8233C189.166 54.8547 189.292 54.5404 190.298 53C190.769 52.2141 191.303 51.4911 191.806 50.7681Z" fill="#295FC6"/>
<path d="M198.659 41.306C198.408 42.1233 198.031 43.758 199.288 46.9644C201.52 52.7171 206.738 57.8725 209.347 56.9294C209.913 56.7094 210.51 56.1435 211.642 56.0806C211.925 56.0806 213.057 56.0178 213.937 56.7094C215.32 57.8096 215.383 60.1987 214.471 61.739C214.314 62.0219 213.465 63.3108 212.177 63.4051C211.045 63.4994 210.668 62.6192 209.756 62.5563C207.524 62.4306 205.607 67.3345 205.355 67.9947C204.852 69.2521 203.626 72.5213 204.506 76.7022C204.695 77.6139 205.135 79.5314 206.487 81.5119C209.41 85.7556 214.314 86.793 216.137 87.1702C217.929 87.5474 224.751 88.962 230.063 84.5611C230.912 83.8695 233.71 81.4804 234.464 77.4253C235.753 70.5723 230 65.4484 229.655 65.1655C229.403 61.6133 228.554 55.9549 225.568 49.7621C223.682 45.8327 221.922 42.2177 217.929 39.4828C212.68 35.9306 205.041 34.9246 201.048 38.0053C200.64 38.3825 199.288 39.4513 198.659 41.306Z" fill="#295FC6"/>
<path d="M192.687 75.0362C192.215 75.5077 190.832 76.9537 190.58 79.2171C190.235 82.3606 192.341 84.5297 192.781 84.9697C195.076 87.3274 198.911 88.2705 201.677 86.8559C201.897 86.7616 204.318 85.4727 204.412 83.618C204.443 82.8007 204.003 82.3921 203.375 80.5688C202.966 79.3743 202.714 78.3998 202.526 77.7396C201.677 78.0225 200.231 78.3998 198.439 78.1483C195.233 77.7396 193.252 75.6649 192.687 75.0362Z" fill="#295FC6"/>
<path opacity="0.12" d="M198.974 44.0723C199.005 45.0468 199.131 46.4928 199.791 48.0331C200.231 49.0705 200.671 49.6992 201.017 50.2022C202.337 52.214 202.777 54.1001 203.469 56.2063C204.569 59.4756 204.381 62.2105 204.161 65.6055C203.972 68.4347 203.343 72.7413 201.3 77.7395C202.149 77.991 203.375 78.494 204.695 79.3742C207.115 81.0088 208.216 82.9578 208.907 83.8694C210.322 85.7241 213.465 87.6731 221.041 87.5473C220.287 86.7929 219.218 85.6612 218.055 84.2781C215.32 81.0717 212.931 78.2739 211.516 74.8789C210.699 72.9299 209.442 68.9376 210.416 63.1535C211.296 63.5936 212.334 63.5622 213.151 63.0278C214 62.4619 214.534 61.3303 214.251 60.2929C213.905 59.0984 212.459 58.281 210.982 58.6583C210.668 57.8724 210.165 56.7407 209.347 55.5147C208.059 53.5972 206.707 52.4026 206.204 51.9625C204.601 50.5794 202.274 48.2217 198.974 44.0723Z" fill="#606060"/>
<path opacity="0.14" d="M186.683 62.7449C186.714 62.242 188.317 61.8333 189.669 61.9276C190.863 62.0219 192.278 62.5563 192.246 63.0279C192.215 63.4679 190.895 63.8137 189.92 63.8452C188.411 63.908 186.683 63.2479 186.683 62.7449Z" fill="#606060"/>
<path d="M190.58 51.051C188.789 54.9804 187.185 58.9727 185.802 63.0593C185.708 63.3108 185.897 63.5623 186.117 63.6251C187.343 64.0967 188.569 64.3167 189.857 64.2853C190.455 64.2853 190.455 63.3422 189.857 63.3422C188.631 63.3422 187.5 63.1222 186.368 62.7135C186.462 62.9021 186.588 63.0907 186.682 63.2793C188.034 59.2556 189.574 55.3262 191.366 51.4911C191.649 50.9881 190.832 50.4852 190.58 51.051Z" fill="#161616"/>
<path d="M189.732 64.4738C189.983 68.529 190.36 73.0242 193.378 76.0735C196.27 79.0284 200.451 78.7769 204.255 78.3368C204.852 78.274 204.852 77.3309 204.255 77.3938C200.734 77.8024 196.742 78.1482 194.038 75.4133C191.209 72.5527 190.926 68.2775 190.675 64.4738C190.643 63.8766 189.7 63.8766 189.732 64.4738Z" fill="#161616"/>
<path d="M202.4 78.4312C202.809 80.6317 203.563 82.7378 204.632 84.6868C204.915 85.2212 205.732 84.7497 205.449 84.2153C204.412 82.2977 203.72 80.3173 203.312 78.1797C203.217 77.5824 202.306 77.8339 202.4 78.4312Z" fill="#161616"/>
<path d="M190.36 69.2834C191.901 70.6351 194.196 70.0064 194.793 68.026C194.981 67.4287 194.07 67.2087 193.881 67.7745C193.504 69.0319 192.026 69.5035 191.052 68.5919C190.58 68.2146 189.92 68.8748 190.36 69.2834Z" fill="#161616"/>
<path d="M193.252 67.9946C193.755 68.1203 194.133 68.4032 194.447 68.7805C194.604 68.9691 194.95 68.9376 195.107 68.7805C195.296 68.5919 195.264 68.3089 195.107 68.1203C194.698 67.6174 194.133 67.2401 193.504 67.083C192.938 66.9258 192.687 67.8374 193.252 67.9946Z" fill="#161616"/>
<path d="M194.667 56.2378C194.918 54.9175 196.553 55.169 197.433 55.6405C198.188 56.0491 198.722 56.7093 199.037 57.4952C199.257 58.061 200.168 57.8095 199.948 57.2437C199.445 55.892 198.408 54.8232 196.962 54.446C195.641 54.1002 194.07 54.5088 193.787 55.9863C193.661 56.5835 194.573 56.835 194.667 56.2378Z" fill="#161616"/>
<path d="M194.636 50.6738C196.05 48.3162 198.816 50.1394 199.382 52.1199C199.539 52.7171 200.451 52.4656 200.294 51.8684C199.885 50.4223 198.879 49.0706 197.339 48.6934C195.956 48.379 194.541 48.9763 193.818 50.1709C193.504 50.7367 194.321 51.2082 194.636 50.6738Z" fill="#161616"/>
<path d="M195.579 61.5818C196.176 61.5818 196.176 60.6387 195.579 60.6387C194.981 60.6387 194.95 61.5818 195.579 61.5818Z" fill="#161616"/>
<path d="M197.37 60.1672C197.402 60.1672 197.465 60.1672 197.496 60.1672C197.748 60.1672 197.968 59.9471 197.968 59.6957C197.968 59.4442 197.748 59.2241 197.496 59.2241C197.465 59.2241 197.402 59.2241 197.37 59.2241C197.119 59.2241 196.899 59.4442 196.899 59.6957C196.899 59.9786 197.119 60.1672 197.37 60.1672Z" fill="#161616"/>
<path d="M197.402 61.7704C197.402 61.8018 197.402 61.8333 197.402 61.8647C197.402 62.462 198.345 62.462 198.345 61.8647C198.345 61.8333 198.345 61.8018 198.345 61.7704C198.345 61.1731 197.402 61.1731 197.402 61.7704C197.402 61.8018 197.402 61.8333 197.402 61.8647C197.402 62.462 198.345 62.462 198.345 61.8647C198.345 61.8333 198.345 61.8018 198.345 61.7704C198.345 61.1731 197.402 61.1731 197.402 61.7704Z" fill="#161616"/>
<path d="M211.108 56.9609C211.956 55.7349 213.402 56.5208 213.905 57.5267C214.314 58.3126 214.314 59.2557 214.283 60.1044C214.157 62.242 212.365 63.7509 210.29 62.4307C209.787 62.0849 209.316 62.9022 209.819 63.248C211.045 64.0653 212.617 64.1596 213.843 63.2165C215.1 62.242 215.32 60.6388 215.226 59.1299C215.131 57.6839 214.566 56.0807 213.057 55.5463C211.988 55.1691 210.919 55.5777 210.29 56.4894C209.976 56.9609 210.793 57.4324 211.108 56.9609Z" fill="#161616"/>
<path d="M126.546 39.0108C125.886 39.0108 125.225 39.0422 124.597 39.0422C123.528 41.1169 122.931 43.003 122.585 44.3862C121.579 48.4414 121.83 51.8049 122.019 53.4396C122.145 54.5398 122.333 55.4514 122.491 56.0801C123.056 56.0801 123.622 56.0801 124.188 56.0801C124.408 56.8346 124.628 57.589 124.848 58.3435C130.161 58.3121 134.53 58.3121 137.58 58.3435C156.064 58.5007 168.952 59.2237 171.938 59.3808C175.679 59.6009 178.728 59.8209 180.615 59.9467C180.677 58.7836 180.992 58.3749 181.275 58.2492C181.778 58.0291 182.218 58.5635 182.878 58.4378C183.57 58.312 184.01 57.589 184.293 56.9289C184.858 57.2118 185.896 57.589 187.122 57.4004C187.405 57.369 187.656 57.2747 187.876 57.2118C188.411 56.143 188.945 55.0742 189.479 54.0054C188.725 53.7539 187.656 53.5339 186.367 53.5339C185.644 53.5339 185.016 53.6282 184.481 53.7225C184.418 53.5653 183.915 52.1507 182.595 51.8364C182.186 51.7421 181.841 51.7735 181.558 51.8364C181.369 51.4906 181.18 51.1448 180.992 50.799C180.237 50.6733 179.074 50.4847 177.691 50.2332C166.469 48.1899 158.641 45.7065 152.669 43.9147C146.947 42.1857 138.617 39.8281 127.929 37.2189C127.489 37.8162 127.017 38.4135 126.546 39.0108Z" fill="white"/>
<path opacity="0.07" d="M122.114 51.2082C122.397 51.1453 122.712 51.8683 123.057 51.774C123.623 51.6483 123.497 49.6678 123.623 48.1904C123.717 46.7758 124.126 44.7325 125.509 42.2491C126.421 42.6263 127.804 43.2236 129.47 43.9466C135.474 46.5557 139.624 48.5676 140.881 49.1334C149.18 53 158.296 54.7289 160.591 55.169C165.809 56.175 173.039 57.0552 181.716 56.6779C181.338 57.7153 180.961 58.7527 180.584 59.79C179.138 59.7586 177.032 59.7586 174.454 59.6957C163.389 59.4757 155.656 59.1299 151.223 58.9413C144.968 58.6898 136.009 58.4383 124.692 58.4697C124.566 57.621 124.44 56.7722 124.315 55.9235C123.592 56.0492 122.869 56.175 122.146 56.3007C121.674 52.3713 121.8 51.271 122.114 51.2082Z" fill="#606060"/>
<path d="M127.207 37.2508C123.277 43.3178 122.177 50.8623 124.189 57.8095C124.346 58.4068 125.258 58.1553 125.101 57.5581C123.152 50.8309 124.22 43.6008 128.024 37.7224C128.37 37.188 127.553 36.7164 127.207 37.2508Z" fill="#161616"/>
<path d="M128.024 38.1625C145.722 42.6263 163.389 47.0901 181.087 51.5225C181.684 51.6797 181.936 50.768 181.338 50.6109C163.64 46.1471 145.974 41.6832 128.276 37.2509C127.71 37.0937 127.458 38.0053 128.024 38.1625Z" fill="#161616"/>
<path d="M124.849 58.8469C143.302 58.6897 161.754 59.1298 180.175 60.1357C180.773 60.1672 180.773 59.2241 180.175 59.1927C161.754 58.1868 143.302 57.7467 124.849 57.9038C124.252 57.9038 124.252 58.8469 124.849 58.8469Z" fill="#161616"/>
<path d="M180.804 51.1767C182.062 53.9744 181.779 57.1494 180.05 59.6957C179.704 60.1986 180.521 60.6702 180.867 60.1672C182.785 57.338 183.036 53.8173 181.621 50.7052C181.37 50.1708 180.553 50.6423 180.804 51.1767Z" fill="#161616"/>
<path d="M181.747 52.4027C182.093 52.6542 182.344 52.5598 182.753 52.6542C183.539 52.8742 183.853 53.5972 184.011 54.3517C184.262 55.7348 183.916 58.6583 181.873 57.841C181.307 57.6209 181.056 58.5326 181.621 58.7526C183.696 59.5699 185.048 57.4009 185.048 55.5776C185.048 54.5717 184.922 53.44 184.356 52.5913C184.168 52.3084 183.916 52.0254 183.602 51.8683C183.193 51.6797 182.627 51.8054 182.282 51.5539C181.716 51.2396 181.244 52.0569 181.747 52.4027Z" fill="#161616"/>
<path d="M184.514 54.1316C186.117 54.0373 187.72 54.0687 189.292 54.2888C189.889 54.3516 189.889 53.4086 189.292 53.3457C187.689 53.1571 186.117 53.0942 184.514 53.1885C183.916 53.2514 183.916 54.1945 184.514 54.1316Z" fill="#161616"/>
<path d="M184.388 57.5895C185.676 57.8095 186.965 57.9038 188.254 57.7781C188.851 57.7152 188.851 56.7721 188.254 56.835C187.028 56.9293 185.834 56.8979 184.639 56.6778C184.042 56.5835 183.79 57.4637 184.388 57.5895Z" fill="#161616"/>
<path d="M126.672 38.7598C123.623 36.9994 122.774 42.5006 122.366 44.2295C121.423 48.2218 120.983 52.3398 122.146 56.3321C122.209 56.5207 122.397 56.6779 122.586 56.6779C122.994 56.6779 123.435 56.6779 123.843 56.6779C124.44 56.6779 124.44 55.7348 123.843 55.7348C123.435 55.7348 122.994 55.7348 122.586 55.7348C122.743 55.8606 122.9 55.9549 123.026 56.0806C122.209 53.1886 122.209 50.2651 122.68 47.3102C122.9 45.9899 123.183 44.6696 123.529 43.3808C123.749 42.532 124.44 38.5397 126.169 39.5771C126.735 39.8914 127.207 39.0741 126.672 38.7598Z" fill="#161616"/>
<path d="M160.653 45.5176C160.087 44.826 159.144 44.9203 159.019 44.9203C157.981 44.9832 156.975 45.9262 155.875 48.221C153.738 52.5905 153.643 56.96 153.643 57.6516C153.612 60.6694 153.895 65.5733 156.032 71.4203C156.221 73.8722 156.63 77.2987 157.541 81.291C159.144 88.4582 160.842 96.0027 166.689 102.698C168.889 105.245 173.227 110.18 180.772 111.972C188.662 113.858 195.075 111.06 196.647 110.337C198.03 109.677 201.896 107.728 205.166 103.61C207.146 101.127 209.441 98.4232 209.064 95.0911C208.906 93.6451 208.278 92.4191 207.335 90.4701C206.392 88.5211 205.889 87.5466 204.883 87.1694C203.5 86.635 202.022 87.578 200.387 88.5211C197.621 90.0929 197.37 91.6018 194.383 93.1735C193.597 93.5822 192.812 93.8651 191.24 94.3681C188.756 95.1854 186.304 96.0027 184.041 96.1599C179.106 96.5057 175.145 93.6765 174.013 92.8592C169.832 89.8728 168.198 85.8805 167.129 83.2714C164.74 77.4244 164.928 72.049 165.337 68.9054C166.815 68.654 167.726 68.0567 168.166 67.7109C169.832 66.4221 170.241 64.6302 170.87 61.8639C171.278 60.135 171.467 59.2234 171.027 58.8776C170.115 58.186 167.318 60.4493 166.689 60.9837C166.815 58.8461 167.129 57.1172 167.443 55.8912C167.852 54.2566 168.072 53.4078 168.638 52.7477C169.738 51.4588 171.027 51.5846 171.467 50.3586C171.718 49.6985 171.687 48.7868 171.153 48.2524C170.524 47.6237 169.172 47.6552 168.009 48.5668C167.632 47.7495 166.877 47.2465 166.06 47.2151C165.243 47.1836 164.708 47.6866 164.551 47.8123C164.646 46.9636 164.268 46.1777 163.64 45.8633C162.791 45.4232 161.439 45.9262 160.936 47.2151C160.968 47.0579 161.188 46.1777 160.653 45.5176Z" fill="white"/>
<path opacity="0.12" d="M159.019 44.9203C158.264 46.2406 157.321 48.1896 156.693 50.7358C155.309 56.2684 156.441 60.8894 156.944 63.1214C162.351 86.1635 159.993 86.7293 163.765 92.1362C165.149 94.0852 174.642 107.162 188.788 105.433C200.639 103.987 206.926 93.205 207.743 91.759C208.215 93.0164 208.781 95.154 208.404 97.7002C207.838 101.441 205.512 103.799 204.663 104.679C203.845 105.496 202.84 106.219 200.796 107.634C198.973 108.923 197.181 110.054 196.395 110.463C192.655 112.569 186.87 113.072 182.847 112.538C171.907 111.092 165.337 100.718 162.602 96.4114C156.347 86.5721 155.718 76.6071 155.781 71.6403C155.184 69.6285 154.586 67.5852 153.989 65.5733C153.58 62.4612 153.549 59.8835 153.612 58.0917C153.769 53.5964 153.895 50.2329 156.19 47.3722C157.196 46.1148 158.296 45.3604 159.019 44.9203Z" fill="#606060"/>
<path d="M201.583 107.163C206.55 104.806 209.882 99.8702 209.064 94.2747C208.593 90.8797 205.858 85.0327 201.488 87.1074C199.54 88.0505 197.936 89.7794 196.144 91.0054C193.661 92.7029 190.8 94.0232 187.94 94.9348C184.293 96.0979 180.238 96.3494 176.717 94.589C174.14 93.3002 172.128 91.194 170.588 88.8049C167.193 83.5552 165.432 77.3625 165.841 71.1068C165.872 70.5096 164.929 70.5096 164.898 71.1068C164.552 76.388 165.715 81.4176 168.041 86.1329C170.085 90.3453 173.071 94.3061 177.598 96.0036C183.099 98.0469 189.103 95.9722 194.07 93.3631C196.302 92.1685 198.219 90.6282 200.231 89.0878C202.054 87.6733 203.878 86.9817 205.732 88.8678C208.027 91.194 208.719 95.2492 208.027 98.3298C207.178 102.008 204.443 104.774 201.111 106.346C200.577 106.597 201.048 107.415 201.583 107.163Z" fill="#161616"/>
<path d="M165.778 71.5154C165.369 69.7865 166.595 69.3464 167.727 68.5291C168.387 68.0575 168.89 67.3974 169.362 66.7372C170.556 65.0083 171.499 62.9964 171.751 60.8903C171.876 59.8529 172.097 58.2182 170.682 58.1554C169.016 58.0925 168.324 60.1987 166.752 60.3559C166.155 60.4187 166.155 61.3618 166.752 61.2989C167.947 61.1732 168.544 60.4187 169.456 59.7271C169.99 59.3185 170.588 58.847 170.871 59.7586C171.028 60.2615 170.776 61.2046 170.65 61.7076C170.43 62.7764 169.959 63.8138 169.456 64.7882C168.984 65.6684 168.45 66.5801 167.727 67.3031C167.067 67.9947 166.155 68.1518 165.432 68.7177C164.458 69.4721 164.615 70.761 164.866 71.7983C165.024 72.3642 165.935 72.1127 165.778 71.5154Z" fill="#161616"/>
<path d="M154.807 66.5487C154.178 62.4935 154.115 58.344 154.744 54.2889C154.996 52.6542 155.31 50.9881 155.876 49.4164C156.222 48.4419 156.693 47.3102 157.385 46.5243C158.328 45.487 160.182 44.9526 160.685 46.7129C160.843 47.3102 161.754 47.0587 161.597 46.4615C161.157 44.9526 159.711 44.1352 158.202 44.7325C156.284 45.5184 155.373 47.876 154.776 49.6679C153.015 55.1062 153.015 61.2046 153.864 66.8001C153.99 67.3974 154.901 67.1459 154.807 66.5487Z" fill="#161616"/>
<path d="M159.365 50.3279C160.12 48.4732 162.257 44.7324 164.583 47.2787C164.992 47.7188 165.652 47.0587 165.244 46.6186C164.175 45.4555 162.634 45.2668 161.283 46.0527C159.774 46.9015 159.082 48.5675 158.454 50.1079C158.234 50.6423 159.145 50.8938 159.365 50.3279Z" fill="#161616"/>
<path d="M163.326 51.1139C163.357 49.9194 163.829 48.5991 164.992 48.0332C165.967 47.5617 167.13 47.7818 167.79 48.6305C168.167 49.102 168.827 48.4419 168.45 47.9704C167.538 46.8387 165.904 46.5558 164.615 47.153C163.106 47.8761 162.414 49.5107 162.383 51.1139C162.352 51.7112 163.295 51.7112 163.326 51.1139Z" fill="#161616"/>
<path d="M166.061 51.4282C166.627 49.322 168.984 47.4045 171.028 49.102C171.499 49.4792 172.159 48.8191 171.688 48.4418C169.079 46.3042 165.935 48.3161 165.149 51.1767C164.992 51.774 165.904 52.0255 166.061 51.4282Z" fill="#161616"/>
<path d="M170.839 48.9448C171.845 50.3594 169.613 51.2396 168.827 51.8997C168.167 52.4341 167.79 53.1257 167.507 53.9116C166.752 56.0806 166.407 58.4382 166.218 60.7016C166.155 61.2989 167.098 61.2989 167.161 60.7016C167.318 59.0355 167.57 57.3694 167.978 55.7348C168.104 55.2004 168.23 54.666 168.419 54.1316C168.827 53.0314 169.424 52.6227 170.336 51.9626C171.468 51.1452 172.662 49.825 171.656 48.4104C171.311 47.9703 170.493 48.4418 170.839 48.9448Z" fill="#161616"/>
<path d="M153.644 65.6056C154.147 67.7432 154.776 69.8494 155.561 71.9242C155.782 72.49 156.693 72.2385 156.473 71.6727C155.687 69.5979 155.058 67.4918 154.556 65.3542C154.43 64.7569 153.518 65.0084 153.644 65.6056Z" fill="#161616"/>
<path d="M155.404 72.5214C156.599 83.3352 159.271 94.4319 166.532 102.857C172.317 109.552 181.496 114.645 190.549 112.979C194.824 112.193 198.722 110.055 201.834 107.069C202.274 106.66 201.614 105.969 201.174 106.409C194.95 112.381 186.085 113.953 178.195 110.401C169.707 106.534 163.766 99.2729 160.403 90.6911C158.139 84.8755 157.008 78.7142 156.316 72.5529C156.285 71.9242 155.341 71.9242 155.404 72.5214Z" fill="#161616"/>
</svg>
